# MagicaVoxel @ Ephtracy

# group
o 

# material
mtllib room.mtl
usemtl palette

# normals
vn -1 0 0
vn 1 0 0
vn 0 0 1
vn 0 0 -1
vn 0 -1 0
vn 0 1 0

# texcoords
vt 0.373047 0.5
vt 0.955078 0.5
vt 0.958984 0.5
vt 0.970703 0.5
vt 0.986328 0.5

# verts
v -9.7 -1.5 6.5
v -9.7 -1.5 -6.5
v -9.7 5.1 6.5
v -9.7 5.1 -6.5
v -9.5 -0.6 6.1
v -9.5 -0.6 0.0999999
v -9.5 -0.2 6.1
v -9.5 -0.2 0.0999999
v -9.5 0.1 6.4
v -9.5 0.1 6.2
v -9.5 0.2 6.4
v -9.5 0.2 6.2
v -9.4 -0.2 6
v -9.4 -0.2 5
v -9.4 -0.1 6
v -9.4 -0.1 5.9
v -9.4 -0.1 5.1
v -9.4 -0.1 5
v -9.4 0 5.9
v -9.4 0 5.1
v -9.3 -0.1 6
v -9.3 -0.1 5.9
v -9.3 -0.1 5.1
v -9.3 -0.1 5
v -9.3 0 6
v -9.3 0 5.9
v -9.3 0 5.1
v -9.3 0 5
v -9.2 -0.6 -3.2
v -9.2 -0.6 -3.3
v -9.2 0.6 -3.2
v -9.2 0.6 -3.3
v -9.1 -0.6 6.4
v -9.1 -0.6 6.2
v -9.1 0 6.4
v -9.1 0 6.2
v -8.6 -0.6 6.4
v -8.6 -0.6 6.2
v -8.6 0 6.4
v -8.6 0 6.2
v -8.1 -1.4 -2.8
v -8.1 -1.4 -3.1
v -8.1 -1.3 -2.8
v -8.1 -1.3 -3.1
v -8.1 -0.6 6.4
v -8.1 -0.6 6.2
v -8.1 0 6.4
v -8.1 0 6.2
v -8 -0.1 -3.2
v -8 -0.1 -3.3
v -8 0 -3.2
v -8 0 -3.3
v -7.8 -1.4 -2.9
v -7.8 -1.4 -3.1
v -7.8 -1.3 -2.9
v -7.8 -1.3 -3.1
v -7.7 -0.1 -3.2
v -7.7 -0.1 -3.3
v -7.7 0 -3.2
v -7.7 0 -3.3
v -7.6 -0.6 6.4
v -7.6 -0.6 6.2
v -7.6 0 6.4
v -7.6 0 6.2
v -7.3 -1.4 5.9
v -7.3 -1.4 5.5
v -7.3 -1.2 5.9
v -7.3 -1.2 5.5
v -7.2 -1.4 6
v -7.2 -1.4 5.9
v -7.2 -1.4 5.5
v -7.2 -1.4 5.4
v -7.2 -1.2 6
v -7.2 -1.2 5.9
v -7.2 -1.2 5.5
v -7.2 -1.2 5.4
v -7.1 -0.6 6.4
v -7.1 -0.6 6.2
v -7.1 0 6.4
v -7.1 0 6.2
v -6.8 -1.3 5.9
v -6.8 -1.3 5.5
v -6.8 -1.2 5.9
v -6.8 -1.2 5.5
v -6.6 -1.4 6.4
v -6.6 -1.4 6.2
v -6.6 -1.4 0.2
v -6.6 -1.4 0
v -6.6 -0.8 6.4
v -6.6 -0.8 6.2
v -6.6 -0.8 0.2
v -6.6 -0.8 0
v -6.6 -0.6 6.4
v -6.6 -0.6 6.2
v -6.6 0 6.4
v -6.6 0 6.2
v -6.3 -0.6 -3.2
v -6.3 -0.6 -3.3
v -6.3 0.6 -3.2
v -6.3 0.6 -3.3
v -5.1 -0.1 -3
v -5.1 -0.1 -3.2
v -5.1 0 -3
v -5.1 0 -3.2
v -4.8 -0.1 -3.1
v -4.8 -0.1 -3.2
v -4.8 0 -3.1
v -4.8 0 -3.2
v -4.8 1 -3.6
v -4.8 1 -4.4
v -4.8 1.4 -3.6
v -4.8 1.4 -4.4
v -4.7 1.6 -4.4
v -4.7 1.6 -4.5
v -4.7 2.1 -4.4
v -4.7 2.1 -4.5
v -4.6 1.1 -4.4
v -4.6 1.1 -4.5
v -4.6 1.4 -4.4
v -4.6 1.6 -4.4
v -4.6 1.6 -4.5
v -4 1.1 -4.4
v -4 1.1 -4.5
v -4 1.4 -4.4
v -4 1.6 -4.4
v -4 1.6 -4.5
v -3.9 1.6 -4.4
v -3.9 1.6 -4.5
v -3.9 2.1 -4.4
v -3.9 2.1 -4.5
v -3.5 -1.4 -3.2
v -3.5 -1.4 -3.4
v -3.5 -1.4 -6.2
v -3.5 -1.4 -6.4
v -3.5 -1 -3.2
v -3.5 -1 -3.4
v -3.5 -1 -6.2
v -3.5 -1 -6.4
v -3.5 -0.7 -3.2
v -3.5 -0.7 -3.3
v -3.5 0.7 -3.2
v -3.5 0.7 -3.3
v -3.2 -1.4 3.2
v -3.2 -1.4 3
v -3.2 -1.4 0.2
v -3.2 -1.4 0
v -3.2 0 3
v -3.2 0 0.2
v -3.2 0.2 3.2
v -3.2 0.2 0
v -1.6 1 -6.2
v -1.6 1 -6.4
v -1.6 4.8 -6.2
v -1.6 4.8 -6.4
v -1 0.7 1.8
v -1 0.7 0.8
v -1 0.8 0.8
v -1 0.8 0.7
v -1 1.7 0.8
v -1 1.7 0.7
v -1 1.8 1.8
v -1 1.8 0.8
v -0.9 0.6 1.8
v -0.9 0.6 0.8
v -0.9 0.7 1.8
v -0.9 0.7 0.8
v -0.9 0.7 0.7
v -0.9 0.8 0.8
v -0.9 0.8 0.7
v -0.9 0.8 0.6
v -0.9 1.7 0.8
v -0.9 1.7 0.7
v -0.9 1.7 0.6
v -0.9 1.8 1.8
v -0.9 1.8 0.8
v -0.9 1.8 0.7
v -0.9 1.9 1.8
v -0.9 1.9 0.8
v -0.8 0.2 2.6
v -0.8 0.2 2.3
v -0.8 0.2 2.2
v -0.8 0.2 2
v -0.8 0.2 1.8
v -0.8 0.2 1.1
v -0.8 0.2 1
v -0.8 0.2 0.6
v -0.8 0.3 2.6
v -0.8 0.3 2
v -0.8 0.3 1.8
v -0.8 0.3 1.7
v -0.8 0.3 0.7
v -0.8 0.3 0.6
v -0.8 0.4 1.7
v -0.8 0.4 0.7
v -0.8 0.6 0.8
v -0.8 0.6 0.7
v -0.8 0.7 0.8
v -0.8 0.7 0.7
v -0.8 0.7 0.6
v -0.8 0.8 0.7
v -0.8 0.8 0.6
v -0.8 1.7 0.7
v -0.8 1.7 0.6
v -0.8 1.8 0.8
v -0.8 1.8 0.7
v -0.8 1.8 0.6
v -0.8 1.9 0.8
v -0.8 1.9 0.7
v -0.7 0.3 1.8
v -0.7 0.3 1.7
v -0.7 0.3 0.7
v -0.7 0.3 0.6
v -0.7 0.4 1.8
v -0.7 0.4 1.7
v -0.7 0.4 0.7
v -0.7 0.4 0.6
v -0.6 0.4 1.6
v -0.6 0.4 0.8
v -0.6 0.6 1.6
v -0.6 0.6 0.8
v -0.2 1.3 -6.3
v -0.2 1.3 -6.4
v -0.2 1.3 -6.5
v -0.2 2.7 -6.3
v -0.2 2.7 -6.4
v -0.2 2.7 -6.5
v -0.2 3.1 -6.3
v -0.2 3.1 -6.4
v -0.2 3.1 -6.5
v -0.2 4.5 -6.3
v -0.2 4.5 -6.4
v -0.2 4.5 -6.5
v 0.8 0.8 1.8
v 0.8 0.8 1.7
v 0.8 1.7 1.8
v 0.8 1.7 1.7
v 1.3 1.3 -6.2
v 1.3 1.3 -6.3
v 1.3 1.3 -6.4
v 1.3 1.3 -6.5
v 1.3 2.7 -6.3
v 1.3 2.7 -6.4
v 1.3 2.7 -6.5
v 1.3 3 -6.3
v 1.3 3.1 -6.3
v 1.3 3.1 -6.4
v 1.3 3.1 -6.5
v 1.3 4.5 -6.2
v 1.3 4.5 -6.3
v 1.3 4.5 -6.4
v 1.3 4.5 -6.5
v 2.9 -1.4 3.2
v 2.9 -1.4 3
v 2.9 -1.4 0.2
v 2.9 -1.4 0
v 2.9 0 3.2
v 2.9 0 3
v 2.9 0 0.2
v 2.9 0 0
v 3.1 -1.4 1.1
v 3.1 -1.4 1
v 3.1 0 1.1
v 3.1 0 1
v 3.2 -1.4 -3.2
v 3.2 -1.4 -6.4
v 3.2 5 -3.2
v 3.2 5 -6.4
v 3.6 -1.4 2.4
v 3.6 -1.4 1.1
v 3.6 -1.4 1
v 3.6 -1.4 0.8
v 3.6 -1.3 1.1
v 3.6 -1.3 1
v 3.6 -0.2 2.4
v 3.6 -0.2 0.8
v 3.7 -1.2 -3.1
v 3.7 -1.2 -3.2
v 3.7 -0.3 -3.1
v 3.7 -0.3 -3.2
v 6.5 -1.4 -3.1
v 6.5 -1.4 -3.2
v 6.5 4.6 -3.1
v 6.5 4.6 -3.2
v 8.8 1.4 -2.9
v 8.8 1.4 -3
v 8.8 1.5 -2.9
v 8.8 1.5 -3
v 9 1.4 -3
v 9 1.4 -3.1
v 9 1.5 -3
v 9 1.5 -3.1
v 9.3 -1.4 -3.1
v 9.3 -1.4 -3.4
v 9.3 -1.3 -3.2
v 9.3 -1.3 -3.3
v 9.3 -1.3 -3.4
v 9.3 4.3 -3.2
v 9.3 4.3 -3.3
v 9.3 4.3 -3.4
v 9.3 4.4 -3.1
v 9.3 4.4 -3.4
v 9.6 -1.4 6.4
v 9.6 -1.4 -3.2
v 9.6 5 6.4
v 9.6 5 -3.2
v -9.6 -1.4 6.2
v -9.6 -1.4 0.2
v -9.6 -1.4 0
v -9.6 -1.4 -3.2
v -9.6 -1.4 -3.4
v -9.6 -1.4 -6.2
v -9.6 -1 -3.4
v -9.6 -1 -6.2
v -9.6 -0.8 6.2
v -9.6 -0.8 0.2
v -9.6 -0.6 6.2
v -9.6 -0.6 0
v -9.6 0.1 6.4
v -9.6 0.1 6.2
v -9.6 1 -3.2
v -9.6 1 -6.4
v -9.6 5 6.4
v -9.6 5 -6.4
v -9.4 -1.4 6.4
v -9.4 -1.4 6.2
v -9.4 -1.4 0.2
v -9.4 -1.4 0
v -9.4 -0.8 6.4
v -9.4 -0.8 6.2
v -9.4 -0.8 0.2
v -9.4 -0.8 0
v -9.4 -0.6 6.4
v -9.4 -0.6 6.2
v -9.4 0 6.4
v -9.4 0 6.2
v -9.3 -1.4 -3.2
v -9.3 -1.4 -3.4
v -9.3 -1.4 -6.2
v -9.3 -1.4 -6.4
v -9.3 -1 -3.2
v -9.3 -1 -3.4
v -9.3 -1 -6.2
v -9.3 -1 -6.4
v -9.3 -0.7 -3.2
v -9.3 -0.7 -3.3
v -9.3 0.7 -3.2
v -9.3 0.7 -3.3
v -8.9 -0.6 6.4
v -8.9 -0.6 6.2
v -8.9 0 6.4
v -8.9 0 6.2
v -8.4 -0.6 6.4
v -8.4 -0.6 6.2
v -8.4 0 6.4
v -8.4 0 6.2
v -8.1 -0.1 -3.2
v -8.1 -0.1 -3.3
v -8.1 0 -3.2
v -8.1 0 -3.3
v -8 -1.4 -2.9
v -8 -1.4 -3.1
v -8 -1.3 -2.9
v -8 -1.3 -3.1
v -7.9 -0.6 6.4
v -7.9 -0.6 6.2
v -7.9 0 6.4
v -7.9 0 6.2
v -7.8 -0.1 -3.2
v -7.8 -0.1 -3.3
v -7.8 0 -3.2
v -7.8 0 -3.3
v -7.7 -1.4 -2.8
v -7.7 -1.4 -3.1
v -7.7 -1.3 -2.8
v -7.7 -1.3 -3.1
v -7.4 -0.6 6.4
v -7.4 -0.6 6.2
v -7.4 -0.1 6
v -7.4 -0.1 5.8
v -7.4 -0.1 5.2
v -7.4 -0.1 5
v -7.4 0 6.4
v -7.4 0 6.2
v -7.4 0 6
v -7.4 0 5.8
v -7.4 0 5.2
v -7.4 0 5
v -7.3 -0.2 5.9
v -7.3 -0.2 5.1
v -7.3 -0.1 5.9
v -7.3 -0.1 5.8
v -7.3 -0.1 5.2
v -7.3 -0.1 5.1
v -7.3 0 5.8
v -7.3 0 5.2
v -7.2 -1.3 5.9
v -7.2 -1.3 5.5
v -7.2 -1.2 5.9
v -7.2 -1.2 5.5
v -7.2 -0.2 6
v -7.2 -0.2 5.9
v -7.2 -0.2 5.1
v -7.2 -0.2 5
v -7.2 -0.1 6
v -7.2 -0.1 5.9
v -7.2 -0.1 5.1
v -7.2 -0.1 5
v -6.9 -0.6 6.4
v -6.9 -0.6 6.2
v -6.9 0 6.4
v -6.9 0 6.2
v -6.8 -1.4 6
v -6.8 -1.4 5.9
v -6.8 -1.4 5.5
v -6.8 -1.4 5.4
v -6.8 -1.2 6
v -6.8 -1.2 5.9
v -6.8 -1.2 5.5
v -6.8 -1.2 5.4
v -6.7 -1.4 5.9
v -6.7 -1.4 5.5
v -6.7 -1.2 5.9
v -6.7 -1.2 5.5
v -6.5 -0.6 6.1
v -6.5 -0.6 0.0999999
v -6.5 -0.6 -3.2
v -6.5 -0.6 -3.3
v -6.5 -0.2 6.1
v -6.5 -0.2 0.0999999
v -6.5 0.1 6.4
v -6.5 0.1 6.2
v -6.5 0.2 6.4
v -6.5 0.2 6.2
v -6.5 0.6 -3.2
v -6.5 0.6 -3.3
v -6.4 -1.4 6.4
v -6.4 -1.4 6.2
v -6.4 -1.4 0.2
v -6.4 -1.4 0
v -6.4 -0.8 6.2
v -6.4 -0.8 0.2
v -6.4 -0.6 6.2
v -6.4 -0.6 0
v -6.4 0.1 6.4
v -6.4 0.1 6.2
v -5 -0.1 -3.1
v -5 -0.1 -3.2
v -5 0 -3.1
v -5 0 -3.2
v -4.7 -0.1 -3
v -4.7 -0.1 -3.2
v -4.7 0 -3
v -4.7 0 -3.2
v -4.5 1.6 -4.4
v -4.5 1.6 -4.5
v -4.5 2.1 -4.4
v -4.5 2.1 -4.5
v -4.4 1.1 -4.4
v -4.4 1.1 -4.5
v -4.4 1.4 -4.4
v -4.4 1.6 -4.4
v -4.4 1.6 -4.5
v -3.8 1.1 -4.4
v -3.8 1.1 -4.5
v -3.8 1.4 -4.4
v -3.8 1.6 -4.4
v -3.8 1.6 -4.5
v -3.7 1.6 -4.4
v -3.7 1.6 -4.5
v -3.7 2.1 -4.4
v -3.7 2.1 -4.5
v -3.6 -0.6 -3.2
v -3.6 -0.6 -3.3
v -3.6 0.6 -3.2
v -3.6 0.6 -3.3
v -3.6 1 -3.6
v -3.6 1 -4.4
v -3.6 1.4 -3.6
v -3.6 1.4 -4.4
v -3.2 -1.4 -3.2
v -3.2 -1.4 -3.4
v -3.2 -1.4 -6.2
v -3.2 -1.4 -6.4
v -3.2 -1 -3.4
v -3.2 -1 -6.2
v -3.2 1 -3.2
v -3.2 1 -6.4
v -2.9 -1.4 3.2
v -2.9 -1.4 3
v -2.9 -1.4 0.2
v -2.9 -1.4 0
v -2.9 0 3.2
v -2.9 0 3
v -2.9 0 0.2
v -2.9 0 0
v -1.3 1.3 -6.2
v -1.3 1.3 -6.3
v -1.3 1.3 -6.4
v -1.3 1.3 -6.5
v -1.3 2.7 -6.3
v -1.3 2.7 -6.5
v -1.3 3 -6.3
v -1.3 3.1 -6.3
v -1.3 3.1 -6.4
v -1.3 3.1 -6.5
v -1.3 4.5 -6.2
v -1.3 4.5 -6.5
v -0.8 0.8 1.8
v -0.8 0.8 1.7
v -0.8 1.7 1.8
v -0.8 1.7 1.7
v 0.2 1.3 -6.3
v 0.2 1.3 -6.4
v 0.2 1.3 -6.5
v 0.2 2.7 -6.3
v 0.2 2.7 -6.5
v 0.2 3.1 -6.3
v 0.2 3.1 -6.4
v 0.2 3.1 -6.5
v 0.2 4.5 -6.3
v 0.2 4.5 -6.5
v 0.6 0.4 1.6
v 0.6 0.4 0.8
v 0.6 0.6 1.6
v 0.6 0.6 0.8
v 0.7 0.3 1.8
v 0.7 0.3 1.7
v 0.7 0.3 0.7
v 0.7 0.3 0.6
v 0.7 0.4 1.8
v 0.7 0.4 1.7
v 0.7 0.4 0.7
v 0.7 0.4 0.6
v 0.8 0.2 2.6
v 0.8 0.2 2
v 0.8 0.2 1.8
v 0.8 0.2 1.1
v 0.8 0.2 1
v 0.8 0.2 0.6
v 0.8 0.3 2.6
v 0.8 0.3 2
v 0.8 0.3 1.8
v 0.8 0.3 1.7
v 0.8 0.3 0.7
v 0.8 0.3 0.6
v 0.8 0.4 1.7
v 0.8 0.4 0.7
v 0.8 0.6 0.8
v 0.8 0.6 0.7
v 0.8 0.7 0.8
v 0.8 0.7 0.7
v 0.8 0.7 0.6
v 0.8 0.8 0.7
v 0.8 0.8 0.6
v 0.8 1.7 0.7
v 0.8 1.7 0.6
v 0.8 1.8 0.8
v 0.8 1.8 0.7
v 0.8 1.8 0.6
v 0.8 1.9 0.8
v 0.8 1.9 0.7
v 0.9 0.6 1.8
v 0.9 0.6 0.8
v 0.9 0.7 1.8
v 0.9 0.7 0.8
v 0.9 0.7 0.7
v 0.9 0.8 0.8
v 0.9 0.8 0.7
v 0.9 0.8 0.6
v 0.9 1.7 0.8
v 0.9 1.7 0.7
v 0.9 1.7 0.6
v 0.9 1.8 1.8
v 0.9 1.8 0.8
v 0.9 1.8 0.7
v 0.9 1.9 1.8
v 0.9 1.9 0.8
v 1 0.7 1.8
v 1 0.7 0.8
v 1 0.8 0.8
v 1 0.8 0.7
v 1 1.7 0.8
v 1 1.7 0.7
v 1 1.8 1.8
v 1 1.8 0.8
v 1.6 1 -6.2
v 1.6 1 -6.4
v 1.6 4.8 -6.2
v 1.6 4.8 -6.4
v 3.2 -1.4 3.2
v 3.2 -1.4 3
v 3.2 -1.4 0.2
v 3.2 -1.4 0
v 3.2 -1.3 1.1
v 3.2 -1.3 1
v 3.2 0 3
v 3.2 0 1.1
v 3.2 0 1
v 3.2 0 0.2
v 3.2 0.2 3.2
v 3.2 0.2 1.1
v 3.2 0.2 1
v 3.2 0.2 0
v 4.2 -1.2 -3.1
v 4.2 -1.2 -3.2
v 4.2 -0.3 -3.1
v 4.2 -0.3 -3.2
v 4.4 -1.4 2.4
v 4.4 -1.4 0.8
v 4.4 -0.2 2.4
v 4.4 -0.2 0.8
v 6.7 -1.4 -3.1
v 6.7 -1.4 -3.4
v 6.7 -1.3 -3.2
v 6.7 -1.3 -3.3
v 6.7 -1.3 -3.4
v 6.7 4.3 -3.2
v 6.7 4.3 -3.3
v 6.7 4.3 -3.4
v 6.7 4.4 -3.1
v 6.7 4.4 -3.4
v 9.1 1.4 -2.9
v 9.1 1.4 -3.1
v 9.1 1.5 -2.9
v 9.1 1.5 -3.1
v 9.5 -1.4 -3.1
v 9.5 -1.4 -3.2
v 9.5 4.6 -3.1
v 9.5 4.6 -3.2
v 9.7 -1.5 6.5
v 9.7 -1.5 -6.5
v 9.7 5.1 6.5
v 9.7 5.1 -6.5
v -9.7 -1.5 6.5
v -9.7 5.1 6.5
v 9.7 -1.5 6.5
v 9.7 5.1 6.5
v -9.5 -0.6 6.1
v -9.5 -0.2 6.1
v -6.5 -0.6 6.1
v -6.5 -0.2 6.1
v -9.4 -0.2 6
v -9.4 -0.1 6
v -9.3 -0.1 6
v -9.3 0 6
v -7.4 -0.1 6
v -7.4 0 6
v -7.2 -1.4 6
v -7.2 -1.2 6
v -7.2 -0.2 6
v -7.2 -0.1 6
v -6.8 -1.4 6
v -6.8 -1.2 6
v -9.4 -0.1 5.9
v -9.4 0 5.9
v -9.3 -0.1 5.9
v -9.3 0 5.9
v -7.3 -1.4 5.9
v -7.3 -1.2 5.9
v -7.2 -1.4 5.9
v -7.2 -1.2 5.9
v -6.8 -1.4 5.9
v -6.8 -1.2 5.9
v -6.7 -1.4 5.9
v -6.7 -1.2 5.9
v -7.4 -0.1 5.8
v -7.4 0 5.8
v -7.3 -0.1 5.8
v -7.3 0 5.8
v -7.2 -1.3 5.5
v -7.2 -1.2 5.5
v -6.8 -1.3 5.5
v -6.8 -1.2 5.5
v -7.3 -0.2 5.1
v -7.3 -0.1 5.1
v -7.2 -0.2 5.1
v -7.2 -0.1 5.1
v -3.2 -1.4 3.2
v -3.2 0.2 3.2
v -2.9 -1.4 3.2
v -2.9 0 3.2
v 2.9 -1.4 3.2
v 2.9 0 3.2
v 3.2 -1.4 3.2
v 3.2 0.2 3.2
v -0.8 0.2 2.6
v -0.8 0.3 2.6
v 0.8 0.2 2.6
v 0.8 0.3 2.6
v 3.6 -1.4 2.4
v 3.6 -0.2 2.4
v 4.4 -1.4 2.4
v 4.4 -0.2 2.4
v -1 0.7 1.8
v -1 1.8 1.8
v -0.9 0.6 1.8
v -0.9 0.7 1.8
v -0.9 1.8 1.8
v -0.9 1.9 1.8
v -0.8 0.2 1.8
v -0.8 0.3 1.8
v -0.8 0.8 1.8
v -0.8 1.7 1.8
v -0.7 0.3 1.8
v -0.7 0.4 1.8
v 0.7 0.3 1.8
v 0.7 0.4 1.8
v 0.8 0.2 1.8
v 0.8 0.3 1.8
v 0.8 0.8 1.8
v 0.8 1.7 1.8
v 0.9 0.6 1.8
v 0.9 0.7 1.8
v 0.9 1.8 1.8
v 0.9 1.9 1.8
v 1 0.7 1.8
v 1 1.8 1.8
v -0.8 0.3 1.7
v -0.8 0.4 1.7
v -0.8 0.8 1.7
v -0.8 1.7 1.7
v -0.7 0.3 1.7
v -0.7 0.4 1.7
v 0.7 0.3 1.7
v 0.7 0.4 1.7
v 0.8 0.3 1.7
v 0.8 0.4 1.7
v 0.8 0.8 1.7
v 0.8 1.7 1.7
v -0.6 0.4 1.6
v -0.6 0.6 1.6
v 0.6 0.4 1.6
v 0.6 0.6 1.6
v 3.1 -1.4 1.1
v 3.1 0 1.1
v 3.2 -1.3 1.1
v 3.2 0 1.1
v 3.6 -1.4 1.1
v 3.6 -1.3 1.1
v -9.6 -1.4 0.2
v -9.6 -0.8 0.2
v -9.4 -1.4 0.2
v -9.4 -0.8 0.2
v -6.6 -1.4 0.2
v -6.6 -0.8 0.2
v -6.4 -1.4 0.2
v -6.4 -0.8 0.2
v -3.2 -1.4 0.2
v -3.2 0 0.2
v -2.9 -1.4 0.2
v -2.9 0 0.2
v 2.9 -1.4 0.2
v 2.9 0 0.2
v 3.2 -1.4 0.2
v 3.2 0 0.2
v -8.1 -1.4 -2.8
v -8.1 -1.3 -2.8
v -7.7 -1.4 -2.8
v -7.7 -1.3 -2.8
v 8.8 1.4 -2.9
v 8.8 1.5 -2.9
v 9.1 1.4 -2.9
v 9.1 1.5 -2.9
v -5.1 -0.1 -3
v -5.1 0 -3
v -4.7 -0.1 -3
v -4.7 0 -3
v 3.7 -1.2 -3.1
v 3.7 -0.3 -3.1
v 3.8 -0.9 -3.1
v 3.8 -0.8 -3.1
v 3.8 -0.5 -3.1
v 3.8 -0.4 -3.1
v 3.9 -1.1 -3.1
v 3.9 -1 -3.1
v 3.9 -0.9 -3.1
v 3.9 -0.8 -3.1
v 3.9 -0.7 -3.1
v 3.9 -0.6 -3.1
v 3.9 -0.5 -3.1
v 3.9 -0.4 -3.1
v 4 -1.1 -3.1
v 4 -1 -3.1
v 4 -0.9 -3.1
v 4 -0.8 -3.1
v 4 -0.7 -3.1
v 4 -0.6 -3.1
v 4 -0.5 -3.1
v 4 -0.4 -3.1
v 4.1 -0.9 -3.1
v 4.1 -0.8 -3.1
v 4.1 -0.5 -3.1
v 4.1 -0.4 -3.1
v 4.2 -1.2 -3.1
v 4.2 -0.3 -3.1
v 6.5 -1.4 -3.1
v 6.5 4.6 -3.1
v 6.7 -1.4 -3.1
v 6.7 4.4 -3.1
v 9.3 -1.4 -3.1
v 9.3 4.4 -3.1
v 9.5 -1.4 -3.1
v 9.5 4.6 -3.1
v -9.6 -1.4 -3.2
v -9.6 1 -3.2
v -9.3 -1.4 -3.2
v -9.3 -1 -3.2
v -9.3 -0.7 -3.2
v -9.3 0.7 -3.2
v -9.2 -0.6 -3.2
v -9.2 0.6 -3.2
v -8.1 -0.1 -3.2
v -8.1 0 -3.2
v -8 -0.1 -3.2
v -8 0 -3.2
v -7.8 -0.1 -3.2
v -7.8 0 -3.2
v -7.7 -0.1 -3.2
v -7.7 0 -3.2
v -6.5 -0.6 -3.2
v -6.5 0.6 -3.2
v -6.3 -0.6 -3.2
v -6.3 0.6 -3.2
v -5.1 -0.1 -3.2
v -5.1 0 -3.2
v -5 -0.1 -3.2
v -5 0 -3.2
v -4.8 -0.1 -3.2
v -4.8 0 -3.2
v -4.7 -0.1 -3.2
v -4.7 0 -3.2
v -3.6 -0.6 -3.2
v -3.6 0.6 -3.2
v -3.5 -1.4 -3.2
v -3.5 -1 -3.2
v -3.5 -0.7 -3.2
v -3.5 0.7 -3.2
v -3.2 -1.4 -3.2
v -3.2 1 -3.2
v 3.2 -1.4 -3.2
v 3.2 5 -3.2
v 3.7 -1.2 -3.2
v 3.7 -0.3 -3.2
v 4.2 -1.2 -3.2
v 4.2 -0.3 -3.2
v 6.5 -1.4 -3.2
v 6.5 4.6 -3.2
v 6.7 -1.3 -3.2
v 6.7 4.3 -3.2
v 9.3 -1.3 -3.2
v 9.3 4.3 -3.2
v 9.5 -1.4 -3.2
v 9.5 4.6 -3.2
v 9.6 -1.4 -3.2
v 9.6 5 -3.2
v -9.3 -0.7 -3.3
v -9.3 0.7 -3.3
v -9.2 -0.6 -3.3
v -9.2 0.6 -3.3
v -8.1 -0.1 -3.3
v -8.1 0 -3.3
v -8 -0.1 -3.3
v -8 0 -3.3
v -7.8 -0.1 -3.3
v -7.8 0 -3.3
v -7.7 -0.1 -3.3
v -7.7 0 -3.3
v -6.5 -0.6 -3.3
v -6.5 0.6 -3.3
v -6.3 -0.6 -3.3
v -6.3 0.6 -3.3
v -3.6 -0.6 -3.3
v -3.6 0.6 -3.3
v -3.5 -0.7 -3.3
v -3.5 0.7 -3.3
v 6.7 -1.4 -3.4
v 6.7 -1.3 -3.4
v 6.7 4.3 -3.4
v 6.7 4.4 -3.4
v 9.3 -1.4 -3.4
v 9.3 -1.3 -3.4
v 9.3 4.3 -3.4
v 9.3 4.4 -3.4
v -4.8 1 -3.6
v -4.8 1.4 -3.6
v -3.6 1 -3.6
v -3.6 1.4 -3.6
v -4.7 1.6 -4.4
v -4.7 2.1 -4.4
v -4.6 1.4 -4.4
v -4.6 1.6 -4.4
v -4.5 1.6 -4.4
v -4.5 2.1 -4.4
v -4.4 1.4 -4.4
v -4.4 1.6 -4.4
v -4 1.4 -4.4
v -4 1.6 -4.4
v -3.9 1.6 -4.4
v -3.9 2.1 -4.4
v -3.8 1.4 -4.4
v -3.8 1.6 -4.4
v -3.7 1.6 -4.4
v -3.7 2.1 -4.4
v -9.6 -1.4 -6.2
v -9.6 -1 -6.2
v -9.3 -1.4 -6.2
v -9.3 -1 -6.2
v -3.5 -1.4 -6.2
v -3.5 -1 -6.2
v -3.2 -1.4 -6.2
v -3.2 -1 -6.2
v -1.6 1 -6.2
v -1.6 4.8 -6.2
v -1.3 1.3 -6.2
v -1.3 4.5 -6.2
v 1.3 1.3 -6.2
v 1.3 4.5 -6.2
v 1.6 1 -6.2
v 1.6 4.8 -6.2
v -1.3 2.7 -6.3
v -1.3 3 -6.3
v -1.3 3.1 -6.3
v -0.2 1.3 -6.3
v -0.2 2.7 -6.3
v -0.2 3.1 -6.3
v -0.2 4.5 -6.3
v -0.1 1.3 -6.3
v -0.1 2.7 -6.3
v -0.1 3 -6.3
v -0.1 4.5 -6.3
v 0.2 1.3 -6.3
v 0.2 2.7 -6.3
v 0.2 3 -6.3
v 0.2 3.1 -6.3
v 0.2 4.5 -6.3
v 1.3 2.7 -6.3
v 1.3 3 -6.3
v 1.3 3.1 -6.3
v -9.6 1 -6.4
v -9.6 5 -6.4
v -9.3 -1.4 -6.4
v -9.3 -1 -6.4
v -3.5 -1.4 -6.4
v -3.5 -1 -6.4
v -3.2 -1.4 -6.4
v -3.2 1 -6.4
v -1.6 1 -6.4
v -1.6 4.8 -6.4
v 1.6 1 -6.4
v 1.6 4.8 -6.4
v 3.2 -1.4 -6.4
v 3.2 5 -6.4
v -9.6 0.1 6.4
v -9.6 5 6.4
v -9.5 0.1 6.4
v -9.5 0.2 6.4
v -9.4 -1.4 6.4
v -9.4 -0.8 6.4
v -9.4 -0.6 6.4
v -9.4 0 6.4
v -9.1 -0.6 6.4
v -9.1 0 6.4
v -8.9 -0.6 6.4
v -8.9 0 6.4
v -8.6 -0.6 6.4
v -8.6 0 6.4
v -8.4 -0.6 6.4
v -8.4 0 6.4
v -8.1 -0.6 6.4
v -8.1 0 6.4
v -7.9 -0.6 6.4
v -7.9 0 6.4
v -7.6 -0.6 6.4
v -7.6 0 6.4
v -7.4 -0.6 6.4
v -7.4 0 6.4
v -7.1 -0.6 6.4
v -7.1 0 6.4
v -6.9 -0.6 6.4
v -6.9 0 6.4
v -6.6 -1.4 6.4
v -6.6 -0.8 6.4
v -6.6 -0.6 6.4
v -6.6 0 6.4
v -6.5 0.1 6.4
v -6.5 0.2 6.4
v -6.4 -1.4 6.4
v -6.4 0.1 6.4
v 9.6 -1.4 6.4
v 9.6 5 6.4
v -9.6 -1.4 6.2
v -9.6 -0.8 6.2
v -9.6 -0.6 6.2
v -9.6 0.1 6.2
v -9.5 0.1 6.2
v -9.5 0.2 6.2
v -9.4 -1.4 6.2
v -9.4 -0.8 6.2
v -9.4 -0.6 6.2
v -9.4 0 6.2
v -9.1 -0.6 6.2
v -9.1 0 6.2
v -8.9 -0.6 6.2
v -8.9 0 6.2
v -8.6 -0.6 6.2
v -8.6 0 6.2
v -8.4 -0.6 6.2
v -8.4 0 6.2
v -8.1 -0.6 6.2
v -8.1 0 6.2
v -7.9 -0.6 6.2
v -7.9 0 6.2
v -7.6 -0.6 6.2
v -7.6 0 6.2
v -7.4 -0.6 6.2
v -7.4 0 6.2
v -7.1 -0.6 6.2
v -7.1 0 6.2
v -6.9 -0.6 6.2
v -6.9 0 6.2
v -6.6 -1.4 6.2
v -6.6 -0.8 6.2
v -6.6 -0.6 6.2
v -6.6 0 6.2
v -6.5 0.1 6.2
v -6.5 0.2 6.2
v -6.4 -1.4 6.2
v -6.4 -0.8 6.2
v -6.4 -0.6 6.2
v -6.4 0.1 6.2
v -7.3 -0.2 5.9
v -7.3 -0.1 5.9
v -7.2 -1.3 5.9
v -7.2 -1.2 5.9
v -7.2 -0.2 5.9
v -7.2 -0.1 5.9
v -6.8 -1.3 5.9
v -6.8 -1.2 5.9
v -7.3 -1.4 5.5
v -7.3 -1.2 5.5
v -7.2 -1.4 5.5
v -7.2 -1.2 5.5
v -6.8 -1.4 5.5
v -6.8 -1.2 5.5
v -6.7 -1.4 5.5
v -6.7 -1.2 5.5
v -7.2 -1.4 5.4
v -7.2 -1.2 5.4
v -6.8 -1.4 5.4
v -6.8 -1.2 5.4
v -7.4 -0.1 5.2
v -7.4 0 5.2
v -7.3 -0.1 5.2
v -7.3 0 5.2
v -9.4 -0.1 5.1
v -9.4 0 5.1
v -9.3 -0.1 5.1
v -9.3 0 5.1
v -9.4 -0.2 5
v -9.4 -0.1 5
v -9.3 -0.1 5
v -9.3 0 5
v -7.4 -0.1 5
v -7.4 0 5
v -7.2 -0.2 5
v -7.2 -0.1 5
v -3.2 -1.4 3
v -3.2 0 3
v -2.9 -1.4 3
v -2.9 0 3
v 2.9 -1.4 3
v 2.9 0 3
v 3.2 -1.4 3
v 3.2 0 3
v -0.8 0.2 2
v -0.8 0.3 2
v 0.8 0.2 2
v 0.8 0.3 2
v 3.1 -1.4 1
v 3.1 0 1
v 3.2 -1.3 1
v 3.2 0 1
v 3.6 -1.4 1
v 3.6 -1.3 1
v -1 0.7 0.8
v -1 0.8 0.8
v -1 1.7 0.8
v -1 1.8 0.8
v -0.9 0.6 0.8
v -0.9 0.7 0.8
v -0.9 0.8 0.8
v -0.9 1.7 0.8
v -0.9 1.8 0.8
v -0.9 1.9 0.8
v -0.8 0.6 0.8
v -0.8 0.7 0.8
v -0.8 1.8 0.8
v -0.8 1.9 0.8
v -0.6 0.4 0.8
v -0.6 0.6 0.8
v 0.6 0.4 0.8
v 0.6 0.6 0.8
v 0.8 0.6 0.8
v 0.8 0.7 0.8
v 0.8 1.8 0.8
v 0.8 1.9 0.8
v 0.9 0.6 0.8
v 0.9 0.7 0.8
v 0.9 0.8 0.8
v 0.9 1.7 0.8
v 0.9 1.8 0.8
v 0.9 1.9 0.8
v 1 0.7 0.8
v 1 0.8 0.8
v 1 1.7 0.8
v 1 1.8 0.8
v 3.6 -1.4 0.8
v 3.6 -0.2 0.8
v 4.4 -1.4 0.8
v 4.4 -0.2 0.8
v -1 0.8 0.7
v -1 1.7 0.7
v -0.9 0.7 0.7
v -0.9 0.8 0.7
v -0.9 1.7 0.7
v -0.9 1.8 0.7
v -0.8 0.3 0.7
v -0.8 0.4 0.7
v -0.8 0.6 0.7
v -0.8 0.7 0.7
v -0.8 0.8 0.7
v -0.8 1.7 0.7
v -0.8 1.8 0.7
v -0.8 1.9 0.7
v -0.7 0.3 0.7
v -0.7 0.4 0.7
v 0.7 0.3 0.7
v 0.7 0.4 0.7
v 0.8 0.3 0.7
v 0.8 0.4 0.7
v 0.8 0.6 0.7
v 0.8 0.7 0.7
v 0.8 0.8 0.7
v 0.8 1.7 0.7
v 0.8 1.8 0.7
v 0.8 1.9 0.7
v 0.9 0.7 0.7
v 0.9 0.8 0.7
v 0.9 1.7 0.7
v 0.9 1.8 0.7
v 1 0.8 0.7
v 1 1.7 0.7
v -0.9 0.8 0.6
v -0.9 1.7 0.6
v -0.8 0.2 0.6
v -0.8 0.3 0.6
v -0.8 0.7 0.6
v -0.8 0.8 0.6
v -0.8 1.7 0.6
v -0.8 1.8 0.6
v -0.7 0.3 0.6
v -0.7 0.4 0.6
v 0.7 0.3 0.6
v 0.7 0.4 0.6
v 0.8 0.2 0.6
v 0.8 0.3 0.6
v 0.8 0.7 0.6
v 0.8 0.8 0.6
v 0.8 1.7 0.6
v 0.8 1.8 0.6
v 0.9 0.8 0.6
v 0.9 1.7 0.6
v -9.5 -0.6 0.0999999
v -9.5 -0.2 0.0999999
v -6.5 -0.6 0.0999999
v -6.5 -0.2 0.0999999
v -9.6 -1.4 0
v -9.6 -0.6 0
v -9.4 -1.4 0
v -9.4 -0.8 0
v -6.6 -1.4 0
v -6.6 -0.8 0
v -6.4 -1.4 0
v -6.4 -0.6 0
v -3.2 -1.4 0
v -3.2 0.2 0
v -2.9 -1.4 0
v -2.9 0 0
v 2.9 -1.4 0
v 2.9 0 0
v 3.2 -1.4 0
v 3.2 0.2 0
v -8 -1.4 -2.9
v -8 -1.3 -2.9
v -7.8 -1.4 -2.9
v -7.8 -1.3 -2.9
v 8.8 1.4 -3
v 8.8 1.5 -3
v 9 1.4 -3
v 9 1.5 -3
v -8.1 -1.4 -3.1
v -8.1 -1.3 -3.1
v -8 -1.4 -3.1
v -8 -1.3 -3.1
v -7.8 -1.4 -3.1
v -7.8 -1.3 -3.1
v -7.7 -1.4 -3.1
v -7.7 -1.3 -3.1
v -5 -0.1 -3.1
v -5 0 -3.1
v -4.8 -0.1 -3.1
v -4.8 0 -3.1
v 9 1.4 -3.1
v 9 1.5 -3.1
v 9.1 1.4 -3.1
v 9.1 1.5 -3.1
v -9.6 -1.4 -3.4
v -9.6 -1 -3.4
v -9.3 -1.4 -3.4
v -9.3 -1 -3.4
v -3.5 -1.4 -3.4
v -3.5 -1 -3.4
v -3.2 -1.4 -3.4
v -3.2 -1 -3.4
v -4.8 1 -4.4
v -4.8 1.4 -4.4
v -4.6 1.1 -4.4
v -4.6 1.4 -4.4
v -4.4 1.1 -4.4
v -4.4 1.4 -4.4
v -4 1.1 -4.4
v -4 1.4 -4.4
v -3.8 1.1 -4.4
v -3.8 1.4 -4.4
v -3.6 1 -4.4
v -3.6 1.4 -4.4
v -4.7 1.6 -4.5
v -4.7 2.1 -4.5
v -4.6 1.1 -4.5
v -4.6 1.6 -4.5
v -4.5 1.6 -4.5
v -4.5 2.1 -4.5
v -4.4 1.1 -4.5
v -4.4 1.6 -4.5
v -4 1.1 -4.5
v -4 1.6 -4.5
v -3.9 1.6 -4.5
v -3.9 2.1 -4.5
v -3.8 1.1 -4.5
v -3.8 1.6 -4.5
v -3.7 1.6 -4.5
v -3.7 2.1 -4.5
v -9.7 -1.5 -6.5
v -9.7 5.1 -6.5
v -1.3 1.3 -6.5
v -1.3 2.7 -6.5
v -1.3 3.1 -6.5
v -1.3 4.5 -6.5
v -0.2 1.3 -6.5
v -0.2 2.7 -6.5
v -0.2 3.1 -6.5
v -0.2 4.5 -6.5
v 0.2 1.3 -6.5
v 0.2 2.7 -6.5
v 0.2 3.1 -6.5
v 0.2 4.5 -6.5
v 1.3 1.3 -6.5
v 1.3 2.7 -6.5
v 1.3 3.1 -6.5
v 1.3 4.5 -6.5
v 9.7 -1.5 -6.5
v 9.7 5.1 -6.5
v -9.7 -1.5 6.5
v 9.7 -1.5 6.5
v -9.6 -1.5 6.4
v 9.6 -1.5 6.4
v -9.6 -1.5 -6.4
v 9.6 -1.5 -6.4
v -9.7 -1.5 -6.5
v 9.7 -1.5 -6.5
v 6.7 -1.3 -3.2
v 9.3 -1.3 -3.2
v 6.7 -1.3 -3.3
v 9.3 -1.3 -3.3
v 6.7 -1.3 -3.4
v 9.3 -1.3 -3.4
v 3.7 -1.2 -3.1
v 4.2 -1.2 -3.1
v 3.7 -1.2 -3.2
v 4.2 -1.2 -3.2
v -9.3 -1 -3.2
v -3.5 -1 -3.2
v -9.6 -1 -3.4
v -9.3 -1 -3.4
v -3.5 -1 -3.4
v -3.2 -1 -3.4
v -9.6 -1 -6.2
v -9.3 -1 -6.2
v -3.5 -1 -6.2
v -3.2 -1 -6.2
v -9.3 -1 -6.4
v -3.5 -1 -6.4
v -9.4 -0.8 6.4
v -6.6 -0.8 6.4
v -9.6 -0.8 6.2
v -9.4 -0.8 6.2
v -6.6 -0.8 6.2
v -6.4 -0.8 6.2
v -9.6 -0.8 0.2
v -9.4 -0.8 0.2
v -6.6 -0.8 0.2
v -6.4 -0.8 0.2
v -9.4 -0.8 0
v -6.6 -0.8 0
v -9.2 -0.6 -3.2
v -6.5 -0.6 -3.2
v -6.3 -0.6 -3.2
v -3.6 -0.6 -3.2
v -9.2 -0.6 -3.3
v -6.5 -0.6 -3.3
v -6.3 -0.6 -3.3
v -3.6 -0.6 -3.3
v -5.1 -0.1 -3
v -4.7 -0.1 -3
v -5 -0.1 -3.1
v -4.8 -0.1 -3.1
v -5.1 -0.1 -3.2
v -5 -0.1 -3.2
v -4.8 -0.1 -3.2
v -4.7 -0.1 -3.2
v -9.4 0 6.4
v -9.1 0 6.4
v -8.9 0 6.4
v -8.6 0 6.4
v -8.4 0 6.4
v -8.1 0 6.4
v -7.9 0 6.4
v -7.6 0 6.4
v -7.4 0 6.4
v -7.1 0 6.4
v -6.9 0 6.4
v -6.6 0 6.4
v -9.4 0 6.2
v -9.1 0 6.2
v -8.9 0 6.2
v -8.6 0 6.2
v -8.4 0 6.2
v -8.1 0 6.2
v -7.9 0 6.2
v -7.6 0 6.2
v -7.4 0 6.2
v -7.1 0 6.2
v -6.9 0 6.2
v -6.6 0 6.2
v -2.9 0 3.2
v 2.9 0 3.2
v -3.2 0 3
v -2.9 0 3
v 2.9 0 3
v 3.2 0 3
v 3.1 0 1.1
v 3.2 0 1.1
v 3.1 0 1
v 3.2 0 1
v -3.2 0 0.2
v -2.9 0 0.2
v 2.9 0 0.2
v 3.2 0 0.2
v -2.9 0 0
v 2.9 0 0
v -8.1 0 -3.2
v -8 0 -3.2
v -7.8 0 -3.2
v -7.7 0 -3.2
v -8.1 0 -3.3
v -8 0 -3.3
v -7.8 0 -3.3
v -7.7 0 -3.3
v -0.9 0.6 1.8
v 0.9 0.6 1.8
v -0.6 0.6 1.6
v 0.6 0.6 1.6
v -0.9 0.6 0.8
v -0.8 0.6 0.8
v -0.6 0.6 0.8
v 0.6 0.6 0.8
v 0.8 0.6 0.8
v 0.9 0.6 0.8
v -0.8 0.6 0.7
v 0.8 0.6 0.7
v -1 0.7 1.8
v -0.9 0.7 1.8
v 0.9 0.7 1.8
v 1 0.7 1.8
v -1 0.7 0.8
v -0.9 0.7 0.8
v -0.8 0.7 0.8
v 0.8 0.7 0.8
v 0.9 0.7 0.8
v 1 0.7 0.8
v -0.9 0.7 0.7
v -0.8 0.7 0.7
v 0.8 0.7 0.7
v 0.9 0.7 0.7
v -0.8 0.7 0.6
v 0.8 0.7 0.6
v -9.3 0.7 -3.2
v -3.5 0.7 -3.2
v -9.3 0.7 -3.3
v -3.5 0.7 -3.3
v -1 0.8 0.8
v -0.9 0.8 0.8
v 0.9 0.8 0.8
v 1 0.8 0.8
v -1 0.8 0.7
v -0.9 0.8 0.7
v -0.8 0.8 0.7
v 0.8 0.8 0.7
v 0.9 0.8 0.7
v 1 0.8 0.7
v -0.9 0.8 0.6
v -0.8 0.8 0.6
v 0.8 0.8 0.6
v 0.9 0.8 0.6
v -1.6 1 -6.2
v 1.6 1 -6.2
v -1.6 1 -6.4
v 1.6 1 -6.4
v -4.6 1.1 -4.4
v -4.4 1.1 -4.4
v -4 1.1 -4.4
v -3.8 1.1 -4.4
v -4.6 1.1 -4.5
v -4.4 1.1 -4.5
v -4 1.1 -4.5
v -3.8 1.1 -4.5
v 8.8 1.4 -2.9
v 9.1 1.4 -2.9
v 8.8 1.4 -3
v 9 1.4 -3
v 9 1.4 -3.1
v 9.1 1.4 -3.1
v -4.7 1.6 -4.4
v -4.6 1.6 -4.4
v -3.8 1.6 -4.4
v -3.7 1.6 -4.4
v -4.7 1.6 -4.5
v -4.6 1.6 -4.5
v -3.8 1.6 -4.5
v -3.7 1.6 -4.5
v -0.8 1.7 1.8
v 0.8 1.7 1.8
v -0.8 1.7 1.7
v 0.8 1.7 1.7
v -1.3 2.7 -6.3
v -0.2 2.7 -6.3
v 0.2 2.7 -6.3
v 1.3 2.7 -6.3
v -0.2 2.7 -6.4
v 1.3 2.7 -6.4
v -1.3 2.7 -6.5
v -0.2 2.7 -6.5
v 0.2 2.7 -6.5
v 1.3 2.7 -6.5
v 6.7 4.4 -3.1
v 9.3 4.4 -3.1
v 6.7 4.4 -3.4
v 9.3 4.4 -3.4
v -1.3 4.5 -6.2
v 1.3 4.5 -6.2
v -0.2 4.5 -6.3
v -0.1 4.5 -6.3
v 0.2 4.5 -6.3
v 1.3 4.5 -6.3
v -0.2 4.5 -6.4
v 1.3 4.5 -6.4
v -1.3 4.5 -6.5
v -0.2 4.5 -6.5
v 0.2 4.5 -6.5
v 1.3 4.5 -6.5
v -9.6 5 6.4
v 9.6 5 6.4
v 3.2 5 -3.2
v 9.6 5 -3.2
v -9.6 5 -6.4
v 3.2 5 -6.4
v -9.4 -1.4 6.4
v -6.6 -1.4 6.4
v -6.4 -1.4 6.4
v 9.6 -1.4 6.4
v -9.6 -1.4 6.2
v -9.4 -1.4 6.2
v -6.6 -1.4 6.2
v -6.4 -1.4 6.2
v -7.2 -1.4 6
v -6.8 -1.4 6
v -7.3 -1.4 5.9
v -7.2 -1.4 5.9
v -6.8 -1.4 5.9
v -6.7 -1.4 5.9
v -7.3 -1.4 5.5
v -7.2 -1.4 5.5
v -6.8 -1.4 5.5
v -6.7 -1.4 5.5
v -7.2 -1.4 5.4
v -6.8 -1.4 5.4
v -3.2 -1.4 3.2
v -2.9 -1.4 3.2
v 2.9 -1.4 3.2
v 3.2 -1.4 3.2
v -3.2 -1.4 3
v -2.9 -1.4 3
v 2.9 -1.4 3
v 3.2 -1.4 3
v 3.6 -1.4 2.4
v 4.4 -1.4 2.4
v 3.1 -1.4 1.1
v 3.6 -1.4 1.1
v 3.1 -1.4 1
v 3.6 -1.4 1
v 3.6 -1.4 0.8
v 4.4 -1.4 0.8
v -9.6 -1.4 0.2
v -9.4 -1.4 0.2
v -6.6 -1.4 0.2
v -6.4 -1.4 0.2
v -3.2 -1.4 0.2
v -2.9 -1.4 0.2
v 2.9 -1.4 0.2
v 3.2 -1.4 0.2
v -9.6 -1.4 0
v -9.4 -1.4 0
v -6.6 -1.4 0
v -6.4 -1.4 0
v -3.2 -1.4 0
v -2.9 -1.4 0
v 2.9 -1.4 0
v 3.2 -1.4 0
v -8.1 -1.4 -2.8
v -7.7 -1.4 -2.8
v -8 -1.4 -2.9
v -7.8 -1.4 -2.9
v -8.1 -1.4 -3.1
v -8 -1.4 -3.1
v -7.8 -1.4 -3.1
v -7.7 -1.4 -3.1
v 6.5 -1.4 -3.1
v 6.7 -1.4 -3.1
v 9.3 -1.4 -3.1
v 9.5 -1.4 -3.1
v -9.6 -1.4 -3.2
v -9.3 -1.4 -3.2
v -3.5 -1.4 -3.2
v -3.2 -1.4 -3.2
v 3.2 -1.4 -3.2
v 6.5 -1.4 -3.2
v 9.5 -1.4 -3.2
v 9.6 -1.4 -3.2
v -9.6 -1.4 -3.4
v -9.3 -1.4 -3.4
v -3.5 -1.4 -3.4
v -3.2 -1.4 -3.4
v 6.7 -1.4 -3.4
v 9.3 -1.4 -3.4
v -9.6 -1.4 -6.2
v -9.3 -1.4 -6.2
v -3.5 -1.4 -6.2
v -3.2 -1.4 -6.2
v -9.3 -1.4 -6.4
v -3.5 -1.4 -6.4
v -3.2 -1.4 -6.4
v 3.2 -1.4 -6.4
v -7.2 -1.3 5.9
v -6.8 -1.3 5.9
v -7.2 -1.3 5.5
v -6.8 -1.3 5.5
v 3.2 -1.3 1.1
v 3.6 -1.3 1.1
v 3.2 -1.3 1
v 3.6 -1.3 1
v -8.1 -1.3 -2.8
v -7.7 -1.3 -2.8
v -8 -1.3 -2.9
v -7.8 -1.3 -2.9
v -8.1 -1.3 -3.1
v -8 -1.3 -3.1
v -7.8 -1.3 -3.1
v -7.7 -1.3 -3.1
v -7.2 -1.2 6
v -6.8 -1.2 6
v -7.3 -1.2 5.9
v -7.2 -1.2 5.9
v -6.8 -1.2 5.9
v -6.7 -1.2 5.9
v -7.3 -1.2 5.5
v -7.2 -1.2 5.5
v -6.8 -1.2 5.5
v -6.7 -1.2 5.5
v -7.2 -1.2 5.4
v -6.8 -1.2 5.4
v -9.3 -0.7 -3.2
v -3.5 -0.7 -3.2
v -9.3 -0.7 -3.3
v -3.5 -0.7 -3.3
v -9.4 -0.6 6.4
v -9.1 -0.6 6.4
v -8.9 -0.6 6.4
v -8.6 -0.6 6.4
v -8.4 -0.6 6.4
v -8.1 -0.6 6.4
v -7.9 -0.6 6.4
v -7.6 -0.6 6.4
v -7.4 -0.6 6.4
v -7.1 -0.6 6.4
v -6.9 -0.6 6.4
v -6.6 -0.6 6.4
v -9.6 -0.6 6.2
v -9.4 -0.6 6.2
v -9.1 -0.6 6.2
v -8.9 -0.6 6.2
v -8.6 -0.6 6.2
v -8.4 -0.6 6.2
v -8.1 -0.6 6.2
v -7.9 -0.6 6.2
v -7.6 -0.6 6.2
v -7.4 -0.6 6.2
v -7.1 -0.6 6.2
v -6.9 -0.6 6.2
v -6.6 -0.6 6.2
v -6.4 -0.6 6.2
v -9.5 -0.6 6.1
v -6.5 -0.6 6.1
v -9.5 -0.6 0.0999999
v -6.5 -0.6 0.0999999
v -9.6 -0.6 0
v -6.4 -0.6 0
v 3.7 -0.3 -3.1
v 4.2 -0.3 -3.1
v 3.7 -0.3 -3.2
v 4.2 -0.3 -3.2
v -9.5 -0.2 6.1
v -6.5 -0.2 6.1
v -9.4 -0.2 6
v -7.2 -0.2 6
v -7.3 -0.2 5.9
v -7.2 -0.2 5.9
v -7.3 -0.2 5.1
v -7.2 -0.2 5.1
v -9.4 -0.2 5
v -7.2 -0.2 5
v 3.6 -0.2 2.4
v 4.4 -0.2 2.4
v 3.6 -0.2 0.8
v 4.4 -0.2 0.8
v -9.5 -0.2 0.0999999
v -6.5 -0.2 0.0999999
v -9.4 -0.1 6
v -9.3 -0.1 6
v -7.4 -0.1 6
v -7.2 -0.1 6
v -9.4 -0.1 5.9
v -9.3 -0.1 5.9
v -7.3 -0.1 5.9
v -7.2 -0.1 5.9
v -7.4 -0.1 5.8
v -7.3 -0.1 5.8
v -7.4 -0.1 5.2
v -7.3 -0.1 5.2
v -9.4 -0.1 5.1
v -9.3 -0.1 5.1
v -7.3 -0.1 5.1
v -7.2 -0.1 5.1
v -9.4 -0.1 5
v -9.3 -0.1 5
v -7.4 -0.1 5
v -7.2 -0.1 5
v -8.1 -0.1 -3.2
v -8 -0.1 -3.2
v -7.8 -0.1 -3.2
v -7.7 -0.1 -3.2
v -8.1 -0.1 -3.3
v -8 -0.1 -3.3
v -7.8 -0.1 -3.3
v -7.7 -0.1 -3.3
v -9.3 0 6
v -7.4 0 6
v -9.4 0 5.9
v -9.3 0 5.9
v -7.4 0 5.8
v -7.3 0 5.8
v -7.4 0 5.2
v -7.3 0 5.2
v -9.4 0 5.1
v -9.3 0 5.1
v -9.3 0 5
v -7.4 0 5
v -5.1 0 -3
v -4.7 0 -3
v -5 0 -3.1
v -4.8 0 -3.1
v -5.1 0 -3.2
v -5 0 -3.2
v -4.8 0 -3.2
v -4.7 0 -3.2
v -9.6 0.1 6.4
v -9.5 0.1 6.4
v -6.5 0.1 6.4
v -6.4 0.1 6.4
v -9.6 0.1 6.2
v -9.5 0.1 6.2
v -6.5 0.1 6.2
v -6.4 0.1 6.2
v -9.5 0.2 6.4
v -6.5 0.2 6.4
v -9.5 0.2 6.2
v -6.5 0.2 6.2
v -3.2 0.2 3.2
v 3.2 0.2 3.2
v -0.8 0.2 2.6
v 0.8 0.2 2.6
v -1.1 0.2 2.3
v -0.8 0.2 2.3
v -1.2 0.2 2.2
v -1.1 0.2 2.2
v -0.8 0.2 2.2
v -1.3 0.2 2.1
v -1.2 0.2 2.1
v -1.1 0.2 2.1
v -1.4 0.2 2
v -1.3 0.2 2
v -1.2 0.2 2
v -0.8 0.2 2
v 0.8 0.2 2
v -1.5 0.2 1.9
v -1.4 0.2 1.9
v -1.3 0.2 1.9
v -1.2 0.2 1.9
v -1.1 0.2 1.9
v -1.3 0.2 1.8
v -1.2 0.2 1.8
v -1.1 0.2 1.8
v -1 0.2 1.8
v -0.8 0.2 1.8
v 0.8 0.2 1.8
v -1.5 0.2 1.6
v -1.4 0.2 1.6
v -1.3 0.2 1.6
v -1.2 0.2 1.6
v -1.1 0.2 1.6
v -1 0.2 1.6
v -1.4 0.2 1.5
v -1.3 0.2 1.5
v -1.2 0.2 1.5
v -1.1 0.2 1.5
v -1.3 0.2 1.2
v -1.2 0.2 1.2
v -1.1 0.2 1.2
v 1.6 0.2 1.2
v 2 0.2 1.2
v 2.5 0.2 1.2
v 2.9 0.2 1.2
v -1.2 0.2 1.1
v -1.1 0.2 1.1
v -0.8 0.2 1.1
v 0.8 0.2 1.1
v 1.6 0.2 1.1
v 2 0.2 1.1
v 2.2 0.2 1.1
v 2.3 0.2 1.1
v 2.5 0.2 1.1
v 2.9 0.2 1.1
v 3.2 0.2 1.1
v -1.1 0.2 1
v -0.8 0.2 1
v 0.8 0.2 1
v 1.6 0.2 1
v 2 0.2 1
v 2.2 0.2 1
v 2.3 0.2 1
v 2.5 0.2 1
v 2.9 0.2 1
v 3.2 0.2 1
v 1.8 0.2 0.9
v 2.2 0.2 0.9
v 2.3 0.2 0.9
v 2.4 0.2 0.9
v 1.7 0.2 0.8
v 1.8 0.2 0.8
v 2.2 0.2 0.8
v 2.3 0.2 0.8
v 2.4 0.2 0.8
v 2.5 0.2 0.8
v 1.6 0.2 0.7
v 1.7 0.2 0.7
v 1.8 0.2 0.7
v -0.8 0.2 0.6
v 0.8 0.2 0.6
v 1.6 0.2 0.5
v 1.7 0.2 0.5
v 1.8 0.2 0.5
v 2.3 0.2 0.5
v 2.4 0.2 0.5
v 2.5 0.2 0.5
v 1.7 0.2 0.4
v 1.8 0.2 0.4
v 2.3 0.2 0.4
v 2.4 0.2 0.4
v 1.8 0.2 0.3
v 2.3 0.2 0.3
v -3.2 0.2 0
v 3.2 0.2 0
v -0.8 0.3 2.6
v 0.8 0.3 2.6
v -0.8 0.3 2
v 0.8 0.3 2
v -0.8 0.3 1.8
v -0.7 0.3 1.8
v 0.7 0.3 1.8
v 0.8 0.3 1.8
v -0.8 0.3 1.7
v -0.7 0.3 1.7
v 0.7 0.3 1.7
v 0.8 0.3 1.7
v -0.8 0.3 0.7
v -0.7 0.3 0.7
v 0.7 0.3 0.7
v 0.8 0.3 0.7
v -0.8 0.3 0.6
v -0.7 0.3 0.6
v 0.7 0.3 0.6
v 0.8 0.3 0.6
v -0.7 0.4 1.8
v 0.7 0.4 1.8
v -0.8 0.4 1.7
v -0.7 0.4 1.7
v 0.7 0.4 1.7
v 0.8 0.4 1.7
v -0.6 0.4 1.6
v 0.6 0.4 1.6
v -0.6 0.4 0.8
v 0.6 0.4 0.8
v -0.8 0.4 0.7
v -0.7 0.4 0.7
v 0.7 0.4 0.7
v 0.8 0.4 0.7
v -0.7 0.4 0.6
v 0.7 0.4 0.6
v -9.2 0.6 -3.2
v -6.5 0.6 -3.2
v -6.3 0.6 -3.2
v -3.6 0.6 -3.2
v -9.2 0.6 -3.3
v -6.5 0.6 -3.3
v -6.3 0.6 -3.3
v -3.6 0.6 -3.3
v -0.8 0.8 1.8
v 0.8 0.8 1.8
v -0.8 0.8 1.7
v 0.8 0.8 1.7
v -9.6 1 -3.2
v -3.2 1 -3.2
v -4.8 1 -3.6
v -3.6 1 -3.6
v -4.8 1 -4.4
v -3.6 1 -4.4
v -9.6 1 -6.4
v -3.2 1 -6.4
v -1.3 1.3 -6.2
v 1.3 1.3 -6.2
v -1.3 1.3 -6.3
v -0.2 1.3 -6.3
v -0.1 1.3 -6.3
v 0.2 1.3 -6.3
v 1.3 1.3 -6.3
v -1.3 1.3 -6.4
v -0.2 1.3 -6.4
v 0.2 1.3 -6.4
v 1.3 1.3 -6.4
v -1.3 1.3 -6.5
v -0.2 1.3 -6.5
v 0.2 1.3 -6.5
v 1.3 1.3 -6.5
v -4.8 1.4 -3.6
v -3.6 1.4 -3.6
v -4.8 1.4 -4.4
v -4.6 1.4 -4.4
v -4.4 1.4 -4.4
v -4 1.4 -4.4
v -3.8 1.4 -4.4
v -3.6 1.4 -4.4
v 8.8 1.5 -2.9
v 9.1 1.5 -2.9
v 8.8 1.5 -3
v 9 1.5 -3
v 9 1.5 -3.1
v 9.1 1.5 -3.1
v -4.5 1.6 -4.4
v -4.4 1.6 -4.4
v -4 1.6 -4.4
v -3.9 1.6 -4.4
v -4.5 1.6 -4.5
v -4.4 1.6 -4.5
v -4 1.6 -4.5
v -3.9 1.6 -4.5
v -1 1.7 0.8
v -0.9 1.7 0.8
v 0.9 1.7 0.8
v 1 1.7 0.8
v -1 1.7 0.7
v -0.9 1.7 0.7
v -0.8 1.7 0.7
v 0.8 1.7 0.7
v 0.9 1.7 0.7
v 1 1.7 0.7
v -0.9 1.7 0.6
v -0.8 1.7 0.6
v 0.8 1.7 0.6
v 0.9 1.7 0.6
v -1 1.8 1.8
v -0.9 1.8 1.8
v 0.9 1.8 1.8
v 1 1.8 1.8
v -1 1.8 0.8
v -0.9 1.8 0.8
v -0.8 1.8 0.8
v 0.8 1.8 0.8
v 0.9 1.8 0.8
v 1 1.8 0.8
v -0.9 1.8 0.7
v -0.8 1.8 0.7
v 0.8 1.8 0.7
v 0.9 1.8 0.7
v -0.8 1.8 0.6
v 0.8 1.8 0.6
v -0.9 1.9 1.8
v 0.9 1.9 1.8
v -0.9 1.9 0.8
v -0.8 1.9 0.8
v 0.8 1.9 0.8
v 0.9 1.9 0.8
v -0.8 1.9 0.7
v 0.8 1.9 0.7
v -4.7 2.1 -4.4
v -4.5 2.1 -4.4
v -3.9 2.1 -4.4
v -3.7 2.1 -4.4
v -4.7 2.1 -4.5
v -4.5 2.1 -4.5
v -3.9 2.1 -4.5
v -3.7 2.1 -4.5
v -1.3 3.1 -6.3
v -0.2 3.1 -6.3
v 0.2 3.1 -6.3
v 1.3 3.1 -6.3
v -1.3 3.1 -6.4
v -0.2 3.1 -6.4
v 0.2 3.1 -6.4
v 1.3 3.1 -6.4
v -1.3 3.1 -6.5
v -0.2 3.1 -6.5
v 0.2 3.1 -6.5
v 1.3 3.1 -6.5
v 6.7 4.3 -3.2
v 9.3 4.3 -3.2
v 6.7 4.3 -3.3
v 9.3 4.3 -3.3
v 6.7 4.3 -3.4
v 9.3 4.3 -3.4
v 6.5 4.6 -3.1
v 9.5 4.6 -3.1
v 6.5 4.6 -3.2
v 9.5 4.6 -3.2
v -1.6 4.8 -6.2
v 1.6 4.8 -6.2
v -1.6 4.8 -6.4
v 1.6 4.8 -6.4
v -9.7 5.1 6.5
v 9.7 5.1 6.5
v -9.7 5.1 -6.5
v 9.7 5.1 -6.5

# faces
f 3/4/1 2/4/1 1/4/1
f 4/4/1 2/4/1 3/4/1
f 7/4/1 6/4/1 5/4/1
f 8/4/1 6/4/1 7/4/1
f 11/5/1 10/5/1 9/5/1
f 12/5/1 10/5/1 11/5/1
f 15/4/1 14/4/1 13/4/1
f 16/4/1 14/4/1 15/4/1
f 17/4/1 14/4/1 16/4/1
f 18/4/1 14/4/1 17/4/1
f 19/4/1 17/4/1 16/4/1
f 20/4/1 17/4/1 19/4/1
f 25/4/1 22/4/1 21/4/1
f 26/4/1 22/4/1 25/4/1
f 27/4/1 24/4/1 23/4/1
f 28/4/1 24/4/1 27/4/1
f 31/1/1 30/1/1 29/1/1
f 32/1/1 30/1/1 31/1/1
f 35/5/1 34/5/1 33/5/1
f 36/5/1 34/5/1 35/5/1
f 39/5/1 38/5/1 37/5/1
f 40/5/1 38/5/1 39/5/1
f 43/5/1 42/5/1 41/5/1
f 44/5/1 42/5/1 43/5/1
f 47/5/1 46/5/1 45/5/1
f 48/5/1 46/5/1 47/5/1
f 51/1/1 50/1/1 49/1/1
f 52/1/1 50/1/1 51/1/1
f 55/5/1 54/5/1 53/5/1
f 56/5/1 54/5/1 55/5/1
f 59/1/1 58/1/1 57/1/1
f 60/1/1 58/1/1 59/1/1
f 63/5/1 62/5/1 61/5/1
f 64/5/1 62/5/1 63/5/1
f 67/4/1 66/4/1 65/4/1
f 68/4/1 66/4/1 67/4/1
f 73/4/1 70/4/1 69/4/1
f 74/4/1 70/4/1 73/4/1
f 75/4/1 72/4/1 71/4/1
f 76/4/1 72/4/1 75/4/1
f 79/5/1 78/5/1 77/5/1
f 80/5/1 78/5/1 79/5/1
f 83/4/1 82/4/1 81/4/1
f 84/4/1 82/4/1 83/4/1
f 89/5/1 86/5/1 85/5/1
f 90/5/1 86/5/1 89/5/1
f 91/5/1 88/5/1 87/5/1
f 92/5/1 88/5/1 91/5/1
f 95/5/1 94/5/1 93/5/1
f 96/5/1 94/5/1 95/5/1
f 99/1/1 98/1/1 97/1/1
f 100/1/1 98/1/1 99/1/1
f 103/5/1 102/5/1 101/5/1
f 104/5/1 102/5/1 103/5/1
f 107/5/1 106/5/1 105/5/1
f 108/5/1 106/5/1 107/5/1
f 111/2/1 110/2/1 109/2/1
f 112/2/1 110/2/1 111/2/1
f 115/2/1 114/2/1 113/2/1
f 116/2/1 114/2/1 115/2/1
f 119/2/1 118/2/1 117/2/1
f 120/2/1 118/2/1 119/2/1
f 121/2/1 118/2/1 120/2/1
f 124/2/1 123/2/1 122/2/1
f 125/2/1 123/2/1 124/2/1
f 126/2/1 123/2/1 125/2/1
f 129/2/1 128/2/1 127/2/1
f 130/2/1 128/2/1 129/2/1
f 135/1/1 132/1/1 131/1/1
f 136/1/1 132/1/1 135/1/1
f 137/1/1 134/1/1 133/1/1
f 138/1/1 134/1/1 137/1/1
f 141/1/1 140/1/1 139/1/1
f 142/1/1 140/1/1 141/1/1
f 147/1/1 144/1/1 143/1/1
f 148/1/1 146/1/1 145/1/1
f 149/1/1 147/1/1 143/1/1
f 149/1/1 148/1/1 147/1/1
f 150/1/1 146/1/1 148/1/1
f 150/1/1 148/1/1 149/1/1
f 153/4/1 152/4/1 151/4/1
f 154/4/1 152/4/1 153/4/1
f 157/5/1 156/5/1 155/5/1
f 159/5/1 157/5/1 155/5/1
f 159/5/1 158/5/1 157/5/1
f 160/5/1 158/5/1 159/5/1
f 161/5/1 159/5/1 155/5/1
f 162/5/1 159/5/1 161/5/1
f 165/5/1 164/5/1 163/5/1
f 166/5/1 164/5/1 165/5/1
f 168/5/1 167/5/1 166/5/1
f 169/5/1 167/5/1 168/5/1
f 172/5/1 170/5/1 169/5/1
f 173/5/1 170/5/1 172/5/1
f 175/5/1 172/5/1 171/5/1
f 176/5/1 172/5/1 175/5/1
f 177/5/1 175/5/1 174/5/1
f 178/5/1 175/5/1 177/5/1
f 187/5/1 180/5/1 179/5/1
f 187/5/1 181/5/1 180/5/1
f 187/5/1 182/5/1 181/5/1
f 188/5/1 182/5/1 187/5/1
f 189/5/1 186/5/1 185/5/1
f 189/5/1 185/5/1 184/5/1
f 189/5/1 184/5/1 183/5/1
f 190/5/1 186/5/1 189/5/1
f 191/5/1 186/5/1 190/5/1
f 192/5/1 186/5/1 191/5/1
f 193/5/1 191/5/1 190/5/1
f 194/5/1 191/5/1 193/5/1
f 197/5/1 196/5/1 195/5/1
f 198/5/1 196/5/1 197/5/1
f 200/5/1 199/5/1 198/5/1
f 201/5/1 199/5/1 200/5/1
f 205/5/1 203/5/1 202/5/1
f 206/5/1 203/5/1 205/5/1
f 207/5/1 205/5/1 204/5/1
f 208/5/1 205/5/1 207/5/1
f 213/5/1 210/5/1 209/5/1
f 214/5/1 210/5/1 213/5/1
f 215/5/1 212/5/1 211/5/1
f 216/5/1 212/5/1 215/5/1
f 219/5/1 218/5/1 217/5/1
f 220/5/1 218/5/1 219/5/1
f 224/5/1 222/5/1 221/5/1
f 225/4/1 223/4/1 222/4/1
f 225/5/1 222/5/1 224/5/1
f 226/4/1 223/4/1 225/4/1
f 230/5/1 228/5/1 227/5/1
f 231/4/1 229/4/1 228/4/1
f 231/5/1 228/5/1 230/5/1
f 232/4/1 229/4/1 231/4/1
f 235/5/1 234/5/1 233/5/1
f 236/5/1 234/5/1 235/5/1
f 241/4/1 238/4/1 237/4/1
f 241/5/1 239/5/1 238/5/1
f 242/4/1 240/4/1 239/4/1
f 242/5/1 239/5/1 241/5/1
f 243/4/1 240/4/1 242/4/1
f 244/4/1 241/4/1 237/4/1
f 245/4/1 244/4/1 237/4/1
f 248/4/1 245/4/1 237/4/1
f 249/5/1 246/5/1 245/5/1
f 249/4/1 245/4/1 248/4/1
f 250/4/1 247/4/1 246/4/1
f 250/5/1 246/5/1 249/5/1
f 251/4/1 247/4/1 250/4/1
f 256/1/1 253/1/1 252/1/1
f 257/1/1 253/1/1 256/1/1
f 258/1/1 255/1/1 254/1/1
f 259/1/1 255/1/1 258/1/1
f 262/2/1 261/2/1 260/2/1
f 263/2/1 261/2/1 262/2/1
f 266/4/1 265/4/1 264/4/1
f 267/4/1 265/4/1 266/4/1
f 272/2/1 269/2/1 268/2/1
f 273/2/1 271/2/1 270/2/1
f 274/2/1 272/2/1 268/2/1
f 274/2/1 273/2/1 272/2/1
f 275/2/1 271/2/1 273/2/1
f 275/2/1 273/2/1 274/2/1
f 278/4/1 277/4/1 276/4/1
f 279/4/1 277/4/1 278/4/1
f 282/4/1 281/4/1 280/4/1
f 283/4/1 281/4/1 282/4/1
f 286/5/1 285/5/1 284/5/1
f 287/5/1 285/5/1 286/5/1
f 290/5/1 289/5/1 288/5/1
f 291/5/1 289/5/1 290/5/1
f 294/4/1 293/4/1 292/4/1
f 295/4/1 293/4/1 294/4/1
f 296/4/1 293/4/1 295/4/1
f 297/4/1 294/4/1 292/4/1
f 300/4/1 297/4/1 292/4/1
f 300/4/1 299/4/1 298/4/1
f 300/4/1 298/4/1 297/4/1
f 301/4/1 299/4/1 300/4/1
f 304/4/1 303/4/1 302/4/1
f 305/4/1 303/4/1 304/4/1
f 310/4/2 311/4/2 312/4/2
f 312/4/2 311/4/2 313/4/2
f 306/4/2 307/4/2 314/4/2
f 314/4/2 307/4/2 315/4/2
f 308/4/2 309/4/2 317/4/2
f 316/4/2 317/4/2 319/4/2
f 317/4/2 309/4/2 320/4/2
f 318/4/2 319/4/2 320/4/2
f 319/4/2 317/4/2 320/4/2
f 318/4/2 320/4/2 322/4/2
f 320/4/2 321/4/2 322/4/2
f 322/4/2 321/4/2 323/4/2
f 324/5/2 325/5/2 328/5/2
f 328/5/2 325/5/2 329/5/2
f 326/5/2 327/5/2 330/5/2
f 330/5/2 327/5/2 331/5/2
f 332/5/2 333/5/2 334/5/2
f 334/5/2 333/5/2 335/5/2
f 336/1/2 337/1/2 340/1/2
f 340/1/2 337/1/2 341/1/2
f 338/1/2 339/1/2 342/1/2
f 342/1/2 339/1/2 343/1/2
f 344/1/2 345/1/2 346/1/2
f 346/1/2 345/1/2 347/1/2
f 348/5/2 349/5/2 350/5/2
f 350/5/2 349/5/2 351/5/2
f 352/5/2 353/5/2 354/5/2
f 354/5/2 353/5/2 355/5/2
f 356/1/2 357/1/2 358/1/2
f 358/1/2 357/1/2 359/1/2
f 360/5/2 361/5/2 362/5/2
f 362/5/2 361/5/2 363/5/2
f 364/5/2 365/5/2 366/5/2
f 366/5/2 365/5/2 367/5/2
f 368/1/2 369/1/2 370/1/2
f 370/1/2 369/1/2 371/1/2
f 372/5/2 373/5/2 374/5/2
f 374/5/2 373/5/2 375/5/2
f 376/5/2 377/5/2 382/5/2
f 382/5/2 377/5/2 383/5/2
f 378/4/2 379/4/2 384/4/2
f 384/4/2 379/4/2 385/4/2
f 380/4/2 381/4/2 386/4/2
f 386/4/2 381/4/2 387/4/2
f 388/4/2 389/4/2 390/4/2
f 390/4/2 389/4/2 391/4/2
f 391/4/2 389/4/2 392/4/2
f 392/4/2 389/4/2 393/4/2
f 391/4/2 392/4/2 394/4/2
f 394/4/2 392/4/2 395/4/2
f 396/4/2 397/4/2 398/4/2
f 398/4/2 397/4/2 399/4/2
f 400/4/2 401/4/2 404/4/2
f 404/4/2 401/4/2 405/4/2
f 402/4/2 403/4/2 406/4/2
f 406/4/2 403/4/2 407/4/2
f 408/5/2 409/5/2 410/5/2
f 410/5/2 409/5/2 411/5/2
f 412/4/2 413/4/2 416/4/2
f 416/4/2 413/4/2 417/4/2
f 414/4/2 415/4/2 418/4/2
f 418/4/2 415/4/2 419/4/2
f 420/4/2 421/4/2 422/4/2
f 422/4/2 421/4/2 423/4/2
f 424/4/2 425/4/2 428/4/2
f 428/4/2 425/4/2 429/4/2
f 430/5/2 431/5/2 432/5/2
f 432/5/2 431/5/2 433/5/2
f 426/1/2 427/1/2 434/1/2
f 434/1/2 427/1/2 435/1/2
f 436/5/2 437/5/2 440/5/2
f 438/5/2 439/5/2 441/5/2
f 436/5/2 440/5/2 442/5/2
f 440/5/2 441/5/2 442/5/2
f 441/5/2 439/5/2 443/5/2
f 442/5/2 441/5/2 443/5/2
f 436/5/2 442/5/2 444/5/2
f 444/5/2 442/5/2 445/5/2
f 446/5/2 447/5/2 448/5/2
f 448/5/2 447/5/2 449/5/2
f 450/5/2 451/5/2 452/5/2
f 452/5/2 451/5/2 453/5/2
f 454/2/2 455/2/2 456/2/2
f 456/2/2 455/2/2 457/2/2
f 458/2/2 459/2/2 460/2/2
f 460/2/2 459/2/2 461/2/2
f 461/2/2 459/2/2 462/2/2
f 463/2/2 464/2/2 465/2/2
f 465/2/2 464/2/2 466/2/2
f 466/2/2 464/2/2 467/2/2
f 468/2/2 469/2/2 470/2/2
f 470/2/2 469/2/2 471/2/2
f 472/1/2 473/1/2 474/1/2
f 474/1/2 473/1/2 475/1/2
f 476/2/2 477/2/2 478/2/2
f 478/2/2 477/2/2 479/2/2
f 480/1/2 481/1/2 484/1/2
f 482/1/2 483/1/2 485/1/2
f 480/1/2 484/1/2 486/1/2
f 484/1/2 485/1/2 486/1/2
f 485/1/2 483/1/2 487/1/2
f 486/1/2 485/1/2 487/1/2
f 488/1/2 489/1/2 492/1/2
f 492/1/2 489/1/2 493/1/2
f 490/1/2 491/1/2 494/1/2
f 494/1/2 491/1/2 495/1/2
f 496/4/2 497/4/2 500/4/2
f 498/4/2 499/4/2 500/4/2
f 497/4/2 498/4/2 500/4/2
f 500/4/2 499/4/2 501/4/2
f 496/4/2 500/4/2 502/4/2
f 496/4/2 502/4/2 503/4/2
f 496/4/2 503/4/2 506/4/2
f 504/4/2 505/4/2 506/4/2
f 503/4/2 504/4/2 506/4/2
f 506/4/2 505/4/2 507/4/2
f 508/5/2 509/5/2 510/5/2
f 510/5/2 509/5/2 511/5/2
f 512/4/2 513/4/2 515/4/2
f 513/4/2 514/4/2 515/4/2
f 515/4/2 514/4/2 516/4/2
f 517/4/2 518/4/2 520/4/2
f 518/4/2 519/4/2 520/4/2
f 520/4/2 519/4/2 521/4/2
f 522/5/2 523/5/2 524/5/2
f 524/5/2 523/5/2 525/5/2
f 526/5/2 527/5/2 530/5/2
f 530/5/2 527/5/2 531/5/2
f 528/5/2 529/5/2 532/5/2
f 532/5/2 529/5/2 533/5/2
f 534/5/2 535/5/2 540/5/2
f 540/5/2 535/5/2 541/5/2
f 538/5/2 539/5/2 542/5/2
f 536/5/2 537/5/2 542/5/2
f 537/5/2 538/5/2 542/5/2
f 542/5/2 539/5/2 543/5/2
f 543/5/2 539/5/2 544/5/2
f 544/5/2 539/5/2 545/5/2
f 543/5/2 544/5/2 546/5/2
f 546/5/2 544/5/2 547/5/2
f 548/5/2 549/5/2 550/5/2
f 550/5/2 549/5/2 551/5/2
f 551/5/2 552/5/2 553/5/2
f 553/5/2 552/5/2 554/5/2
f 555/5/2 556/5/2 558/5/2
f 558/5/2 556/5/2 559/5/2
f 557/5/2 558/5/2 560/5/2
f 560/5/2 558/5/2 561/5/2
f 562/5/2 563/5/2 564/5/2
f 564/5/2 563/5/2 565/5/2
f 565/5/2 566/5/2 567/5/2
f 567/5/2 566/5/2 568/5/2
f 568/5/2 569/5/2 571/5/2
f 571/5/2 569/5/2 572/5/2
f 570/5/2 571/5/2 574/5/2
f 574/5/2 571/5/2 575/5/2
f 573/5/2 574/5/2 576/5/2
f 576/5/2 574/5/2 577/5/2
f 578/5/2 579/5/2 580/5/2
f 578/5/2 580/5/2 582/5/2
f 580/5/2 581/5/2 582/5/2
f 582/5/2 581/5/2 583/5/2
f 578/5/2 582/5/2 584/5/2
f 584/5/2 582/5/2 585/5/2
f 586/4/2 587/4/2 588/4/2
f 588/4/2 587/4/2 589/4/2
f 590/1/2 591/1/2 596/1/2
f 594/2/2 595/2/2 597/2/2
f 597/2/2 595/2/2 598/2/2
f 592/1/2 593/1/2 599/1/2
f 590/1/2 596/1/2 600/1/2
f 596/1/2 597/1/2 600/1/2
f 597/2/2 598/2/2 601/2/2
f 600/1/2 597/1/2 601/1/2
f 598/1/2 599/1/2 602/1/2
f 601/2/2 598/2/2 602/2/2
f 599/1/2 593/1/2 603/1/2
f 602/1/2 599/1/2 603/1/2
f 604/4/2 605/4/2 606/4/2
f 606/4/2 605/4/2 607/4/2
f 608/2/2 609/2/2 610/2/2
f 610/2/2 609/2/2 611/2/2
f 612/4/2 613/4/2 614/4/2
f 614/4/2 613/4/2 615/4/2
f 615/4/2 613/4/2 616/4/2
f 612/4/2 614/4/2 617/4/2
f 612/4/2 617/4/2 620/4/2
f 618/4/2 619/4/2 620/4/2
f 617/4/2 618/4/2 620/4/2
f 620/4/2 619/4/2 621/4/2
f 622/5/2 623/5/2 624/5/2
f 624/5/2 623/5/2 625/5/2
f 626/4/2 627/4/2 628/4/2
f 628/4/2 627/4/2 629/4/2
f 630/4/2 631/4/2 632/4/2
f 632/4/2 631/4/2 633/4/2
f 636/4/3 635/4/3 634/4/3
f 637/4/3 635/4/3 636/4/3
f 640/4/3 639/4/3 638/4/3
f 641/4/3 639/4/3 640/4/3
f 644/4/3 643/4/3 642/4/3
f 646/4/3 644/4/3 642/4/3
f 646/4/3 645/4/3 644/4/3
f 647/4/3 645/4/3 646/4/3
f 650/4/3 646/4/3 642/4/3
f 651/4/3 646/4/3 650/4/3
f 652/4/3 649/4/3 648/4/3
f 653/4/3 649/4/3 652/4/3
f 656/4/3 655/4/3 654/4/3
f 657/4/3 655/4/3 656/4/3
f 660/4/3 659/4/3 658/4/3
f 661/4/3 659/4/3 660/4/3
f 664/4/3 663/4/3 662/4/3
f 665/4/3 663/4/3 664/4/3
f 668/4/3 667/4/3 666/4/3
f 669/4/3 667/4/3 668/4/3
f 672/4/3 671/4/3 670/4/3
f 673/4/3 671/4/3 672/4/3
f 676/4/3 675/4/3 674/4/3
f 677/4/3 675/4/3 676/4/3
f 680/1/3 679/1/3 678/1/3
f 681/1/3 679/1/3 680/1/3
f 683/1/3 679/1/3 681/1/3
f 684/1/3 683/1/3 682/1/3
f 685/1/3 679/1/3 683/1/3
f 685/1/3 683/1/3 684/1/3
f 688/5/3 687/5/3 686/5/3
f 689/5/3 687/5/3 688/5/3
f 692/2/3 691/2/3 690/2/3
f 693/2/3 691/2/3 692/2/3
f 697/5/3 695/5/3 694/5/3
f 698/5/3 695/5/3 697/5/3
f 702/5/3 697/5/3 696/5/3
f 702/5/3 698/5/3 697/5/3
f 702/5/3 699/5/3 698/5/3
f 703/5/3 699/5/3 702/5/3
f 704/5/3 701/5/3 700/5/3
f 706/5/3 704/5/3 700/5/3
f 706/5/3 705/5/3 704/5/3
f 707/5/3 705/5/3 706/5/3
f 708/5/3 706/5/3 700/5/3
f 709/5/3 706/5/3 708/5/3
f 710/5/3 702/5/3 696/5/3
f 711/5/3 699/5/3 703/5/3
f 712/5/3 710/5/3 696/5/3
f 712/5/3 711/5/3 710/5/3
f 713/5/3 711/5/3 712/5/3
f 714/5/3 699/5/3 711/5/3
f 714/5/3 711/5/3 713/5/3
f 715/5/3 699/5/3 714/5/3
f 716/5/3 714/5/3 713/5/3
f 717/5/3 714/5/3 716/5/3
f 722/5/3 719/5/3 718/5/3
f 723/5/3 719/5/3 722/5/3
f 726/5/3 725/5/3 724/5/3
f 727/5/3 725/5/3 726/5/3
f 728/3/3 721/3/3 720/3/3
f 729/3/3 721/3/3 728/3/3
f 732/5/3 731/5/3 730/5/3
f 733/5/3 731/5/3 732/5/3
f 736/2/3 735/2/3 734/2/3
f 737/2/3 735/2/3 736/2/3
f 738/2/3 736/2/3 734/2/3
f 739/2/3 736/2/3 738/2/3
f 742/5/3 741/5/3 740/5/3
f 743/5/3 741/5/3 742/5/3
f 746/5/3 745/5/3 744/5/3
f 747/5/3 745/5/3 746/5/3
f 750/1/3 749/1/3 748/1/3
f 751/1/3 749/1/3 750/1/3
f 754/1/3 753/1/3 752/1/3
f 755/1/3 753/1/3 754/1/3
f 758/5/3 757/5/3 756/5/3
f 759/5/3 757/5/3 758/5/3
f 762/5/3 761/5/3 760/5/3
f 763/5/3 761/5/3 762/5/3
f 766/5/3 765/5/3 764/5/3
f 767/5/3 765/5/3 766/5/3
f 770/4/3 769/4/3 768/4/3
f 771/4/3 769/4/3 770/4/3
f 772/4/3 769/4/3 771/4/3
f 773/4/3 769/4/3 772/4/3
f 774/4/3 770/4/3 768/4/3
f 775/4/3 770/4/3 774/4/3
f 776/5/3 771/5/3 770/5/3
f 776/4/3 770/4/3 775/4/3
f 777/4/3 772/4/3 771/4/3
f 777/5/3 771/5/3 776/5/3
f 778/4/3 772/4/3 777/4/3
f 779/4/3 772/4/3 778/4/3
f 780/5/3 773/5/3 772/5/3
f 780/4/3 772/4/3 779/4/3
f 781/4/3 769/4/3 773/4/3
f 781/5/3 773/5/3 780/5/3
f 782/5/3 775/5/3 774/5/3
f 782/4/3 774/4/3 768/4/3
f 783/4/3 776/4/3 775/4/3
f 783/5/3 775/5/3 782/5/3
f 783/4/3 777/4/3 776/4/3
f 783/4/3 778/4/3 777/4/3
f 784/4/3 778/4/3 783/4/3
f 785/4/3 778/4/3 784/4/3
f 786/5/3 779/5/3 778/5/3
f 786/4/3 778/4/3 785/4/3
f 787/4/3 780/4/3 779/4/3
f 787/5/3 779/5/3 786/5/3
f 787/4/3 781/4/3 780/4/3
f 788/4/3 781/4/3 787/4/3
f 789/4/3 769/4/3 781/4/3
f 789/4/3 781/4/3 788/4/3
f 790/5/3 785/5/3 784/5/3
f 790/4/3 784/4/3 783/4/3
f 790/4/3 783/4/3 782/4/3
f 791/4/3 786/4/3 785/4/3
f 791/5/3 785/5/3 790/5/3
f 791/4/3 788/4/3 787/4/3
f 791/4/3 787/4/3 786/4/3
f 792/5/3 789/5/3 788/5/3
f 792/4/3 788/4/3 791/4/3
f 793/4/3 769/4/3 789/4/3
f 793/5/3 789/5/3 792/5/3
f 794/4/3 790/4/3 782/4/3
f 794/4/3 791/4/3 790/4/3
f 794/4/3 793/4/3 792/4/3
f 794/4/3 792/4/3 791/4/3
f 794/4/3 782/4/3 768/4/3
f 795/4/3 769/4/3 793/4/3
f 795/4/3 793/4/3 794/4/3
f 798/4/3 797/4/3 796/4/3
f 799/4/3 797/4/3 798/4/3
f 801/4/3 797/4/3 799/4/3
f 802/4/3 801/4/3 800/4/3
f 803/4/3 797/4/3 801/4/3
f 803/4/3 801/4/3 802/4/3
f 806/1/3 805/1/3 804/1/3
f 807/1/3 805/1/3 806/1/3
f 808/1/3 805/1/3 807/1/3
f 809/1/3 805/1/3 808/1/3
f 812/1/3 811/1/3 810/1/3
f 813/1/3 811/1/3 812/1/3
f 814/1/3 812/1/3 810/1/3
f 815/1/3 811/1/3 813/1/3
f 816/1/3 814/1/3 810/1/3
f 816/1/3 815/1/3 814/1/3
f 817/1/3 811/1/3 815/1/3
f 817/1/3 815/1/3 816/1/3
f 818/1/3 816/1/3 810/1/3
f 819/1/3 811/1/3 817/1/3
f 820/1/3 818/1/3 810/1/3
f 820/1/3 819/1/3 818/1/3
f 821/1/3 811/1/3 819/1/3
f 821/1/3 819/1/3 820/1/3
f 824/1/3 823/1/3 822/1/3
f 825/1/3 823/1/3 824/1/3
f 826/1/3 824/1/3 822/1/3
f 827/1/3 823/1/3 825/1/3
f 828/1/3 826/1/3 822/1/3
f 828/1/3 827/1/3 826/1/3
f 829/1/3 823/1/3 827/1/3
f 829/1/3 827/1/3 828/1/3
f 830/1/3 828/1/3 822/1/3
f 831/1/3 823/1/3 829/1/3
f 832/1/3 830/1/3 822/1/3
f 832/1/3 831/1/3 830/1/3
f 833/1/3 823/1/3 831/1/3
f 833/1/3 831/1/3 832/1/3
f 835/1/3 808/1/3 807/1/3
f 836/1/3 808/1/3 835/1/3
f 837/1/3 805/1/3 809/1/3
f 838/1/3 836/1/3 835/1/3
f 838/1/3 837/1/3 836/1/3
f 838/1/3 835/1/3 834/1/3
f 839/1/3 805/1/3 837/1/3
f 839/1/3 837/1/3 838/1/3
f 842/4/3 841/4/3 840/4/3
f 843/4/3 841/4/3 842/4/3
f 844/4/3 842/4/3 840/4/3
f 845/4/3 841/4/3 843/4/3
f 846/4/3 844/4/3 840/4/3
f 846/4/3 845/4/3 844/4/3
f 847/4/3 841/4/3 845/4/3
f 847/4/3 845/4/3 846/4/3
f 850/1/3 849/1/3 848/1/3
f 851/1/3 849/1/3 850/1/3
f 853/4/3 841/4/3 847/4/3
f 854/4/3 853/4/3 852/4/3
f 855/4/3 841/4/3 853/4/3
f 855/4/3 853/4/3 854/4/3
f 858/1/3 857/1/3 856/1/3
f 859/1/3 857/1/3 858/1/3
f 862/1/3 861/1/3 860/1/3
f 863/1/3 861/1/3 862/1/3
f 866/1/3 865/1/3 864/1/3
f 867/1/3 865/1/3 866/1/3
f 868/1/3 858/1/3 856/1/3
f 869/1/3 857/1/3 859/1/3
f 870/1/3 868/1/3 856/1/3
f 870/1/3 869/1/3 868/1/3
f 871/1/3 857/1/3 869/1/3
f 871/1/3 869/1/3 870/1/3
f 872/1/3 870/1/3 856/1/3
f 873/1/3 857/1/3 871/1/3
f 874/1/3 872/1/3 856/1/3
f 874/1/3 873/1/3 872/1/3
f 875/1/3 857/1/3 873/1/3
f 875/1/3 873/1/3 874/1/3
f 880/4/3 877/4/3 876/4/3
f 881/4/3 877/4/3 880/4/3
f 882/4/3 879/4/3 878/4/3
f 883/4/3 879/4/3 882/4/3
f 886/2/3 885/2/3 884/2/3
f 887/2/3 885/2/3 886/2/3
f 891/2/3 889/2/3 888/2/3
f 892/2/3 889/2/3 891/2/3
f 892/2/3 891/2/3 890/2/3
f 893/2/3 889/2/3 892/2/3
f 894/2/3 892/2/3 890/2/3
f 895/2/3 892/2/3 894/2/3
f 898/2/3 897/2/3 896/2/3
f 900/2/3 898/2/3 896/2/3
f 900/2/3 899/2/3 898/2/3
f 901/2/3 899/2/3 900/2/3
f 902/2/3 899/2/3 901/2/3
f 903/2/3 899/2/3 902/2/3
f 906/1/3 905/1/3 904/1/3
f 907/1/3 905/1/3 906/1/3
f 910/1/3 909/1/3 908/1/3
f 911/1/3 909/1/3 910/1/3
f 914/4/3 913/4/3 912/4/3
f 915/4/3 913/4/3 914/4/3
f 916/4/3 914/4/3 912/4/3
f 917/4/3 913/4/3 915/4/3
f 918/4/3 916/4/3 912/4/3
f 918/4/3 917/4/3 916/4/3
f 919/4/3 913/4/3 917/4/3
f 919/4/3 917/4/3 918/4/3
f 924/4/3 921/4/3 920/4/3
f 925/5/3 922/5/3 921/5/3
f 927/5/3 924/5/3 923/5/3
f 928/4/3 921/4/3 924/4/3
f 928/5/3 924/5/3 927/5/3
f 929/5/3 926/5/3 925/5/3
f 929/4/3 921/4/3 928/4/3
f 929/5/3 925/5/3 921/5/3
f 930/5/3 926/5/3 929/5/3
f 931/4/3 928/4/3 927/4/3
f 931/4/3 929/4/3 928/4/3
f 931/4/3 930/4/3 929/4/3
f 932/4/3 930/4/3 931/4/3
f 933/4/3 930/4/3 932/4/3
f 934/4/3 930/4/3 933/4/3
f 935/4/3 930/4/3 934/4/3
f 936/4/3 933/4/3 932/4/3
f 937/5/3 934/5/3 933/5/3
f 937/4/3 933/4/3 936/4/3
f 938/5/3 934/5/3 937/5/3
f 943/4/3 942/4/3 941/4/3
f 944/4/3 942/4/3 943/4/3
f 946/4/3 940/4/3 939/4/3
f 947/4/3 940/4/3 946/4/3
f 947/4/3 946/4/3 945/4/3
f 948/4/3 940/4/3 947/4/3
f 949/4/3 947/4/3 945/4/3
f 950/4/3 940/4/3 948/4/3
f 951/4/3 949/4/3 945/4/3
f 951/4/3 950/4/3 949/4/3
f 952/4/3 940/4/3 950/4/3
f 952/4/3 950/4/3 951/4/3
f 953/4/4 954/4/4 955/4/4
f 955/4/4 954/4/4 956/4/4
f 959/4/4 960/4/4 961/4/4
f 961/4/4 960/4/4 962/4/4
f 963/4/4 964/4/4 965/4/4
f 965/4/4 964/4/4 966/4/4
f 967/4/4 968/4/4 969/4/4
f 969/4/4 968/4/4 970/4/4
f 971/4/4 972/4/4 973/4/4
f 973/4/4 972/4/4 974/4/4
f 975/4/4 976/4/4 977/4/4
f 977/4/4 976/4/4 978/4/4
f 957/4/4 958/4/4 981/4/4
f 981/4/4 958/4/4 982/4/4
f 979/4/4 980/4/4 983/4/4
f 983/4/4 980/4/4 984/4/4
f 956/4/4 954/4/4 986/4/4
f 985/4/4 986/4/4 988/4/4
f 987/4/4 988/4/4 989/4/4
f 986/4/4 954/4/4 990/4/4
f 989/4/4 988/4/4 990/4/4
f 988/4/4 986/4/4 990/4/4
f 993/5/4 994/5/4 995/5/4
f 991/5/4 992/5/4 997/5/4
f 997/5/4 992/5/4 998/5/4
f 995/5/4 996/5/4 999/5/4
f 993/5/4 995/5/4 999/5/4
f 999/5/4 996/5/4 1000/5/4
f 1000/5/4 996/5/4 1002/5/4
f 1001/5/4 1002/5/4 1003/5/4
f 1002/5/4 996/5/4 1004/5/4
f 1003/5/4 1002/5/4 1004/5/4
f 1004/5/4 996/5/4 1006/5/4
f 1005/5/4 1006/5/4 1007/5/4
f 1006/5/4 996/5/4 1008/5/4
f 1007/5/4 1006/5/4 1008/5/4
f 1008/5/4 996/5/4 1010/5/4
f 1009/5/4 1010/5/4 1011/5/4
f 1010/5/4 996/5/4 1012/5/4
f 1011/5/4 1010/5/4 1012/5/4
f 1012/5/4 996/5/4 1014/5/4
f 1013/5/4 1014/5/4 1015/5/4
f 1014/5/4 996/5/4 1016/5/4
f 1015/5/4 1014/5/4 1016/5/4
f 1016/5/4 996/5/4 1018/5/4
f 1017/5/4 1018/5/4 1019/5/4
f 1018/5/4 996/5/4 1020/5/4
f 1019/5/4 1018/5/4 1020/5/4
f 1020/5/4 996/5/4 1024/5/4
f 1024/5/4 996/5/4 1025/5/4
f 1023/5/4 1024/5/4 1025/5/4
f 1025/5/4 996/5/4 1026/5/4
f 1021/5/4 1022/5/4 1027/5/4
f 1027/5/4 1022/5/4 1028/5/4
f 1023/5/4 1025/5/4 1029/5/4
f 1029/5/4 1025/5/4 1030/5/4
f 1031/4/4 1032/4/4 1035/4/4
f 1035/4/4 1032/4/4 1036/4/4
f 1033/4/4 1034/4/4 1037/4/4
f 1037/4/4 1034/4/4 1038/4/4
f 1039/4/4 1040/4/4 1041/4/4
f 1041/4/4 1040/4/4 1042/4/4
f 1043/4/4 1044/4/4 1045/4/4
f 1045/4/4 1044/4/4 1046/4/4
f 1047/4/4 1048/4/4 1049/4/4
f 1049/4/4 1048/4/4 1050/4/4
f 1051/4/4 1052/4/4 1053/4/4
f 1053/4/4 1052/4/4 1054/4/4
f 1055/4/4 1056/4/4 1057/4/4
f 1057/4/4 1056/4/4 1058/4/4
f 1059/4/4 1060/4/4 1061/4/4
f 1059/4/4 1061/4/4 1063/4/4
f 1061/4/4 1062/4/4 1063/4/4
f 1063/4/4 1062/4/4 1064/4/4
f 1059/4/4 1063/4/4 1065/4/4
f 1065/4/4 1063/4/4 1066/4/4
f 1067/1/4 1068/1/4 1069/1/4
f 1069/1/4 1068/1/4 1070/1/4
f 1071/1/4 1072/1/4 1073/1/4
f 1073/1/4 1072/1/4 1074/1/4
f 1075/5/4 1076/5/4 1077/5/4
f 1077/5/4 1076/5/4 1078/5/4
f 1079/2/4 1080/2/4 1081/2/4
f 1081/2/4 1080/2/4 1082/2/4
f 1079/2/4 1081/2/4 1083/2/4
f 1083/2/4 1081/2/4 1084/2/4
f 1085/5/4 1086/5/4 1090/5/4
f 1090/5/4 1086/5/4 1091/5/4
f 1087/5/4 1088/5/4 1092/5/4
f 1092/5/4 1088/5/4 1093/5/4
f 1089/5/4 1090/5/4 1095/5/4
f 1095/5/4 1090/5/4 1096/5/4
f 1093/5/4 1094/5/4 1097/5/4
f 1097/5/4 1094/5/4 1098/5/4
f 1099/5/4 1100/5/4 1101/5/4
f 1101/5/4 1100/5/4 1102/5/4
f 1103/5/4 1104/5/4 1107/5/4
f 1107/5/4 1104/5/4 1108/5/4
f 1105/5/4 1106/5/4 1111/5/4
f 1111/5/4 1106/5/4 1112/5/4
f 1108/5/4 1109/5/4 1113/5/4
f 1113/5/4 1109/5/4 1114/5/4
f 1110/5/4 1111/5/4 1115/5/4
f 1115/5/4 1111/5/4 1116/5/4
f 1117/2/4 1118/2/4 1119/2/4
f 1119/2/4 1118/2/4 1120/2/4
f 1121/5/4 1122/5/4 1124/5/4
f 1124/5/4 1122/5/4 1125/5/4
f 1123/5/4 1124/5/4 1130/5/4
f 1130/5/4 1124/5/4 1131/5/4
f 1125/5/4 1126/5/4 1132/5/4
f 1132/5/4 1126/5/4 1133/5/4
f 1127/5/4 1128/5/4 1135/5/4
f 1135/5/4 1128/5/4 1136/5/4
f 1137/5/4 1138/5/4 1139/5/4
f 1139/5/4 1138/5/4 1140/5/4
f 1129/5/4 1130/5/4 1141/5/4
f 1141/5/4 1130/5/4 1142/5/4
f 1133/5/4 1134/5/4 1145/5/4
f 1145/5/4 1134/5/4 1146/5/4
f 1142/5/4 1143/5/4 1147/5/4
f 1147/5/4 1143/5/4 1148/5/4
f 1144/5/4 1145/5/4 1149/5/4
f 1149/5/4 1145/5/4 1150/5/4
f 1148/5/4 1149/5/4 1151/5/4
f 1151/5/4 1149/5/4 1152/5/4
f 1153/5/4 1154/5/4 1158/5/4
f 1158/5/4 1154/5/4 1159/5/4
f 1155/5/4 1156/5/4 1161/5/4
f 1155/5/4 1161/5/4 1163/5/4
f 1161/5/4 1162/5/4 1163/5/4
f 1163/5/4 1162/5/4 1164/5/4
f 1155/5/4 1163/5/4 1165/5/4
f 1165/5/4 1163/5/4 1166/5/4
f 1159/5/4 1160/5/4 1167/5/4
f 1157/5/4 1158/5/4 1167/5/4
f 1158/5/4 1159/5/4 1167/5/4
f 1167/5/4 1160/5/4 1168/5/4
f 1168/5/4 1160/5/4 1169/5/4
f 1169/5/4 1160/5/4 1170/5/4
f 1168/5/4 1169/5/4 1171/5/4
f 1171/5/4 1169/5/4 1172/5/4
f 1173/4/4 1174/4/4 1175/4/4
f 1175/4/4 1174/4/4 1176/4/4
f 1177/5/4 1178/5/4 1179/5/4
f 1179/5/4 1178/5/4 1180/5/4
f 1180/5/4 1178/5/4 1182/5/4
f 1181/5/4 1182/5/4 1183/5/4
f 1182/5/4 1178/5/4 1184/5/4
f 1183/5/4 1182/5/4 1184/5/4
f 1185/1/4 1186/1/4 1187/1/4
f 1187/1/4 1186/1/4 1188/1/4
f 1188/1/4 1186/1/4 1190/1/4
f 1189/1/4 1190/1/4 1191/1/4
f 1190/1/4 1186/1/4 1192/1/4
f 1191/1/4 1190/1/4 1192/1/4
f 1193/5/4 1194/5/4 1195/5/4
f 1195/5/4 1194/5/4 1196/5/4
f 1197/5/4 1198/5/4 1199/5/4
f 1199/5/4 1198/5/4 1200/5/4
f 1201/5/4 1202/5/4 1203/5/4
f 1203/5/4 1202/5/4 1204/5/4
f 1205/5/4 1206/5/4 1207/5/4
f 1207/5/4 1206/5/4 1208/5/4
f 1209/5/4 1210/5/4 1211/5/4
f 1211/5/4 1210/5/4 1212/5/4
f 1213/5/4 1214/5/4 1215/5/4
f 1215/5/4 1214/5/4 1216/5/4
f 1217/1/4 1218/1/4 1219/1/4
f 1219/1/4 1218/1/4 1220/1/4
f 1221/1/4 1222/1/4 1223/1/4
f 1223/1/4 1222/1/4 1224/1/4
f 1225/2/4 1226/2/4 1227/2/4
f 1227/2/4 1226/2/4 1228/2/4
f 1225/2/4 1227/2/4 1229/2/4
f 1225/2/4 1229/2/4 1231/2/4
f 1229/2/4 1230/2/4 1231/2/4
f 1231/2/4 1230/2/4 1232/2/4
f 1225/2/4 1231/2/4 1233/2/4
f 1225/2/4 1233/2/4 1235/2/4
f 1233/2/4 1234/2/4 1235/2/4
f 1235/2/4 1234/2/4 1236/2/4
f 1237/2/4 1238/2/4 1240/2/4
f 1240/2/4 1238/2/4 1241/2/4
f 1239/2/4 1240/2/4 1241/2/4
f 1241/2/4 1238/2/4 1242/2/4
f 1239/2/4 1241/2/4 1243/2/4
f 1243/2/4 1241/2/4 1244/2/4
f 1245/2/4 1246/2/4 1247/2/4
f 1245/2/4 1247/2/4 1249/2/4
f 1247/2/4 1248/2/4 1249/2/4
f 1249/2/4 1248/2/4 1250/2/4
f 1250/2/4 1248/2/4 1251/2/4
f 1251/2/4 1248/2/4 1252/2/4
f 1253/4/4 1254/4/4 1255/4/4
f 1255/4/4 1254/4/4 1256/4/4
f 1256/4/4 1254/4/4 1257/4/4
f 1257/4/4 1254/4/4 1258/4/4
f 1253/4/4 1255/4/4 1259/4/4
f 1256/4/4 1257/4/4 1260/4/4
f 1260/4/4 1257/4/4 1261/4/4
f 1258/4/4 1254/4/4 1262/4/4
f 1260/4/4 1261/4/4 1263/4/4
f 1261/4/4 1262/4/4 1263/4/4
f 1253/4/4 1259/4/4 1263/4/4
f 1259/4/4 1260/4/4 1263/4/4
f 1263/4/4 1262/4/4 1264/4/4
f 1264/4/4 1262/4/4 1265/4/4
f 1262/4/4 1254/4/4 1266/4/4
f 1265/4/4 1262/4/4 1266/4/4
f 1253/4/4 1263/4/4 1267/4/4
f 1264/4/4 1265/4/4 1268/4/4
f 1268/4/4 1265/4/4 1269/4/4
f 1266/4/4 1254/4/4 1270/4/4
f 1253/4/4 1267/4/4 1271/4/4
f 1269/4/4 1270/4/4 1271/4/4
f 1268/4/4 1269/4/4 1271/4/4
f 1267/4/4 1268/4/4 1271/4/4
f 1270/4/4 1254/4/4 1272/4/4
f 1271/4/4 1270/4/4 1272/4/4
f 1275/4/5 1274/4/5 1273/4/5
f 1276/4/5 1274/4/5 1275/4/5
f 1277/4/5 1275/4/5 1273/4/5
f 1277/5/5 1276/5/5 1275/5/5
f 1278/4/5 1274/4/5 1276/4/5
f 1278/5/5 1276/5/5 1277/5/5
f 1279/4/5 1277/4/5 1273/4/5
f 1279/4/5 1278/4/5 1277/4/5
f 1280/4/5 1274/4/5 1278/4/5
f 1280/4/5 1278/4/5 1279/4/5
f 1283/1/5 1282/1/5 1281/1/5
f 1284/1/5 1282/1/5 1283/1/5
f 1285/4/5 1284/4/5 1283/4/5
f 1286/4/5 1284/4/5 1285/4/5
f 1289/4/5 1288/4/5 1287/4/5
f 1290/4/5 1288/4/5 1289/4/5
f 1294/1/5 1292/1/5 1291/1/5
f 1295/1/5 1292/1/5 1294/1/5
f 1297/1/5 1294/1/5 1293/1/5
f 1297/1/5 1296/1/5 1295/1/5
f 1297/1/5 1295/1/5 1294/1/5
f 1298/1/5 1296/1/5 1297/1/5
f 1299/1/5 1296/1/5 1298/1/5
f 1300/1/5 1296/1/5 1299/1/5
f 1301/1/5 1299/1/5 1298/1/5
f 1302/1/5 1299/1/5 1301/1/5
f 1306/5/5 1304/5/5 1303/5/5
f 1307/5/5 1304/5/5 1306/5/5
f 1309/5/5 1306/5/5 1305/5/5
f 1309/5/5 1308/5/5 1307/5/5
f 1309/5/5 1307/5/5 1306/5/5
f 1310/5/5 1308/5/5 1309/5/5
f 1311/5/5 1308/5/5 1310/5/5
f 1312/5/5 1308/5/5 1311/5/5
f 1313/5/5 1311/5/5 1310/5/5
f 1314/5/5 1311/5/5 1313/5/5
f 1319/1/5 1316/1/5 1315/1/5
f 1320/1/5 1316/1/5 1319/1/5
f 1321/1/5 1318/1/5 1317/1/5
f 1322/1/5 1318/1/5 1321/1/5
f 1325/5/5 1324/5/5 1323/5/5
f 1326/5/5 1324/5/5 1325/5/5
f 1327/5/5 1325/5/5 1323/5/5
f 1328/5/5 1325/5/5 1327/5/5
f 1329/5/5 1324/5/5 1326/5/5
f 1330/5/5 1324/5/5 1329/5/5
f 1343/5/5 1332/5/5 1331/5/5
f 1344/5/5 1332/5/5 1343/5/5
f 1345/5/5 1334/5/5 1333/5/5
f 1346/5/5 1334/5/5 1345/5/5
f 1347/5/5 1336/5/5 1335/5/5
f 1348/5/5 1336/5/5 1347/5/5
f 1349/5/5 1338/5/5 1337/5/5
f 1350/5/5 1338/5/5 1349/5/5
f 1351/5/5 1340/5/5 1339/5/5
f 1352/5/5 1340/5/5 1351/5/5
f 1353/5/5 1342/5/5 1341/5/5
f 1354/5/5 1342/5/5 1353/5/5
f 1358/1/5 1356/1/5 1355/1/5
f 1359/1/5 1356/1/5 1358/1/5
f 1361/1/5 1358/1/5 1357/1/5
f 1361/1/5 1360/1/5 1359/1/5
f 1361/1/5 1359/1/5 1358/1/5
f 1362/1/5 1360/1/5 1361/1/5
f 1363/1/5 1361/1/5 1357/1/5
f 1365/1/5 1363/1/5 1357/1/5
f 1365/1/5 1364/1/5 1363/1/5
f 1366/1/5 1364/1/5 1365/1/5
f 1367/1/5 1364/1/5 1366/1/5
f 1368/1/5 1364/1/5 1367/1/5
f 1369/1/5 1367/1/5 1366/1/5
f 1370/1/5 1367/1/5 1369/1/5
f 1375/1/5 1372/1/5 1371/1/5
f 1376/1/5 1372/1/5 1375/1/5
f 1377/1/5 1374/1/5 1373/1/5
f 1378/1/5 1374/1/5 1377/1/5
f 1381/5/5 1380/5/5 1379/5/5
f 1382/5/5 1380/5/5 1381/5/5
f 1383/5/5 1381/5/5 1379/5/5
f 1384/5/5 1381/5/5 1383/5/5
f 1385/5/5 1381/5/5 1384/5/5
f 1386/5/5 1380/5/5 1382/5/5
f 1387/5/5 1380/5/5 1386/5/5
f 1388/5/5 1380/5/5 1387/5/5
f 1389/5/5 1385/5/5 1384/5/5
f 1389/5/5 1387/5/5 1386/5/5
f 1389/5/5 1386/5/5 1385/5/5
f 1390/5/5 1387/5/5 1389/5/5
f 1395/5/5 1392/5/5 1391/5/5
f 1396/5/5 1392/5/5 1395/5/5
f 1399/5/5 1394/5/5 1393/5/5
f 1400/5/5 1394/5/5 1399/5/5
f 1401/5/5 1397/5/5 1396/5/5
f 1402/5/5 1397/5/5 1401/5/5
f 1403/5/5 1399/5/5 1398/5/5
f 1404/5/5 1399/5/5 1403/5/5
f 1405/5/5 1403/5/5 1402/5/5
f 1406/5/5 1403/5/5 1405/5/5
f 1409/1/5 1408/1/5 1407/1/5
f 1410/1/5 1408/1/5 1409/1/5
f 1415/5/5 1412/5/5 1411/5/5
f 1416/5/5 1412/5/5 1415/5/5
f 1419/5/5 1414/5/5 1413/5/5
f 1420/5/5 1414/5/5 1419/5/5
f 1421/5/5 1417/5/5 1416/5/5
f 1422/5/5 1417/5/5 1421/5/5
f 1423/5/5 1419/5/5 1418/5/5
f 1424/5/5 1419/5/5 1423/5/5
f 1427/4/5 1426/4/5 1425/4/5
f 1428/4/5 1426/4/5 1427/4/5
f 1433/2/5 1430/2/5 1429/2/5
f 1434/2/5 1430/2/5 1433/2/5
f 1435/2/5 1432/2/5 1431/2/5
f 1436/2/5 1432/2/5 1435/2/5
f 1439/5/5 1438/5/5 1437/5/5
f 1440/5/5 1438/5/5 1439/5/5
f 1441/5/5 1438/5/5 1440/5/5
f 1442/5/5 1438/5/5 1441/5/5
f 1447/2/5 1444/2/5 1443/2/5
f 1448/2/5 1444/2/5 1447/2/5
f 1449/2/5 1446/2/5 1445/2/5
f 1450/2/5 1446/2/5 1449/2/5
f 1453/5/5 1452/5/5 1451/5/5
f 1454/5/5 1452/5/5 1453/5/5
f 1459/4/5 1456/4/5 1455/4/5
f 1460/4/5 1458/4/5 1457/4/5
f 1461/4/5 1459/4/5 1455/4/5
f 1462/4/5 1459/4/5 1461/4/5
f 1463/4/5 1460/4/5 1457/4/5
f 1464/4/5 1460/4/5 1463/4/5
f 1467/4/5 1466/4/5 1465/4/5
f 1468/4/5 1466/4/5 1467/4/5
f 1471/4/5 1470/4/5 1469/4/5
f 1472/4/5 1470/4/5 1471/4/5
f 1473/4/5 1470/4/5 1472/4/5
f 1474/4/5 1470/4/5 1473/4/5
f 1475/4/5 1471/4/5 1469/4/5
f 1476/4/5 1474/4/5 1473/4/5
f 1477/4/5 1475/4/5 1469/4/5
f 1478/4/5 1475/4/5 1477/4/5
f 1479/4/5 1476/4/5 1473/4/5
f 1480/4/5 1476/4/5 1479/4/5
f 1483/4/5 1482/4/5 1481/4/5
f 1484/4/5 1482/4/5 1483/4/5
f 1485/4/5 1483/4/5 1481/4/5
f 1486/4/5 1483/4/5 1485/4/5
f 1487/5/6 1488/5/6 1492/5/6
f 1492/5/6 1488/5/6 1493/5/6
f 1489/5/6 1490/5/6 1494/5/6
f 1492/5/6 1493/5/6 1495/5/6
f 1493/5/6 1494/5/6 1495/5/6
f 1491/5/6 1492/5/6 1495/5/6
f 1495/5/6 1494/5/6 1496/5/6
f 1491/5/6 1495/5/6 1497/5/6
f 1497/5/6 1495/5/6 1498/5/6
f 1496/5/6 1494/5/6 1499/5/6
f 1499/5/6 1494/5/6 1500/5/6
f 1491/5/6 1497/5/6 1501/5/6
f 1500/5/6 1494/5/6 1504/5/6
f 1501/5/6 1502/5/6 1505/5/6
f 1503/5/6 1504/5/6 1506/5/6
f 1494/5/6 1490/5/6 1507/5/6
f 1505/5/6 1506/5/6 1507/5/6
f 1506/5/6 1504/5/6 1507/5/6
f 1504/5/6 1494/5/6 1507/5/6
f 1507/5/6 1490/5/6 1508/5/6
f 1508/5/6 1490/5/6 1509/5/6
f 1509/5/6 1490/5/6 1510/5/6
f 1505/5/6 1507/5/6 1511/5/6
f 1508/5/6 1509/5/6 1512/5/6
f 1512/5/6 1509/5/6 1513/5/6
f 1510/5/6 1490/5/6 1514/5/6
f 1512/5/6 1513/5/6 1515/5/6
f 1513/5/6 1514/5/6 1515/5/6
f 1514/5/6 1490/5/6 1515/5/6
f 1511/5/6 1512/5/6 1515/5/6
f 1515/5/6 1490/5/6 1516/5/6
f 1511/5/6 1515/5/6 1517/5/6
f 1517/5/6 1515/5/6 1518/5/6
f 1511/5/6 1517/5/6 1519/5/6
f 1519/5/6 1520/5/6 1521/5/6
f 1516/5/6 1490/5/6 1522/5/6
f 1501/5/6 1505/5/6 1523/5/6
f 1521/5/6 1522/5/6 1523/5/6
f 1491/5/6 1501/5/6 1523/5/6
f 1505/5/6 1511/5/6 1523/5/6
f 1511/5/6 1519/5/6 1523/5/6
f 1519/5/6 1521/5/6 1523/5/6
f 1523/5/6 1522/5/6 1524/5/6
f 1524/5/6 1522/5/6 1525/5/6
f 1525/5/6 1522/5/6 1526/5/6
f 1526/5/6 1522/5/6 1527/5/6
f 1527/5/6 1522/5/6 1528/5/6
f 1528/5/6 1522/5/6 1529/5/6
f 1529/5/6 1522/5/6 1530/5/6
f 1524/5/6 1525/5/6 1532/5/6
f 1532/5/6 1525/5/6 1533/5/6
f 1526/5/6 1527/5/6 1534/5/6
f 1534/5/6 1527/5/6 1535/5/6
f 1528/5/6 1529/5/6 1536/5/6
f 1536/5/6 1529/5/6 1537/5/6
f 1530/5/6 1522/5/6 1538/5/6
f 1536/5/6 1537/5/6 1539/5/6
f 1537/5/6 1538/5/6 1539/5/6
f 1532/5/6 1533/5/6 1539/5/6
f 1534/5/6 1535/5/6 1539/5/6
f 1535/5/6 1536/5/6 1539/5/6
f 1531/5/6 1532/5/6 1539/5/6
f 1533/5/6 1534/5/6 1539/5/6
f 1539/5/6 1538/5/6 1540/5/6
f 1531/5/6 1539/5/6 1543/5/6
f 1541/5/6 1542/5/6 1544/5/6
f 1544/5/6 1542/5/6 1545/5/6
f 1540/5/6 1538/5/6 1546/5/6
f 1522/5/6 1490/5/6 1547/5/6
f 1538/5/6 1522/5/6 1547/5/6
f 1546/5/6 1538/5/6 1547/5/6
f 1547/5/6 1490/5/6 1548/5/6
f 1548/5/6 1490/5/6 1549/5/6
f 1549/5/6 1490/5/6 1550/5/6
f 1545/5/6 1546/5/6 1551/5/6
f 1531/5/6 1543/5/6 1551/5/6
f 1544/5/6 1545/5/6 1551/5/6
f 1546/5/6 1547/5/6 1551/5/6
f 1543/5/6 1544/5/6 1551/5/6
f 1551/5/6 1547/5/6 1552/5/6
f 1552/5/6 1547/5/6 1553/5/6
f 1553/5/6 1547/5/6 1554/5/6
f 1554/5/6 1547/5/6 1555/5/6
f 1555/5/6 1547/5/6 1556/5/6
f 1550/5/6 1490/5/6 1557/5/6
f 1557/5/6 1490/5/6 1558/5/6
f 1552/5/6 1553/5/6 1560/5/6
f 1560/5/6 1553/5/6 1561/5/6
f 1554/5/6 1555/5/6 1562/5/6
f 1548/5/6 1549/5/6 1563/5/6
f 1563/5/6 1549/5/6 1564/5/6
f 1561/5/6 1562/5/6 1565/5/6
f 1560/5/6 1561/5/6 1565/5/6
f 1559/5/6 1560/5/6 1565/5/6
f 1565/5/6 1562/5/6 1566/5/6
f 1566/5/6 1562/5/6 1567/5/6
f 1562/5/6 1555/5/6 1568/5/6
f 1567/5/6 1562/5/6 1568/5/6
f 1566/5/6 1567/5/6 1569/5/6
f 1569/5/6 1567/5/6 1570/5/6
f 1568/5/6 1555/5/6 1571/5/6
f 1571/5/6 1555/5/6 1572/5/6
f 1573/4/6 1574/4/6 1575/4/6
f 1575/4/6 1574/4/6 1576/4/6
f 1577/2/6 1578/2/6 1579/2/6
f 1579/2/6 1578/2/6 1580/2/6
f 1581/5/6 1582/5/6 1583/5/6
f 1583/5/6 1582/5/6 1584/5/6
f 1581/5/6 1583/5/6 1585/5/6
f 1585/5/6 1583/5/6 1586/5/6
f 1584/5/6 1582/5/6 1587/5/6
f 1587/5/6 1582/5/6 1588/5/6
f 1589/4/6 1590/4/6 1592/4/6
f 1592/4/6 1590/4/6 1593/4/6
f 1591/4/6 1592/4/6 1595/4/6
f 1595/4/6 1592/4/6 1596/4/6
f 1593/4/6 1594/4/6 1597/4/6
f 1597/4/6 1594/4/6 1598/4/6
f 1596/4/6 1597/4/6 1599/4/6
f 1599/4/6 1597/4/6 1600/4/6
f 1601/1/6 1602/1/6 1603/1/6
f 1603/1/6 1602/1/6 1604/1/6
f 1605/5/6 1606/5/6 1618/5/6
f 1618/5/6 1606/5/6 1619/5/6
f 1607/5/6 1608/5/6 1620/5/6
f 1620/5/6 1608/5/6 1621/5/6
f 1609/5/6 1610/5/6 1622/5/6
f 1622/5/6 1610/5/6 1623/5/6
f 1611/5/6 1612/5/6 1624/5/6
f 1624/5/6 1612/5/6 1625/5/6
f 1613/5/6 1614/5/6 1626/5/6
f 1626/5/6 1614/5/6 1627/5/6
f 1615/5/6 1616/5/6 1628/5/6
f 1628/5/6 1616/5/6 1629/5/6
f 1626/5/6 1627/5/6 1631/5/6
f 1629/5/6 1630/5/6 1631/5/6
f 1628/5/6 1629/5/6 1631/5/6
f 1627/5/6 1628/5/6 1631/5/6
f 1618/5/6 1619/5/6 1631/5/6
f 1625/5/6 1626/5/6 1631/5/6
f 1620/5/6 1621/5/6 1631/5/6
f 1623/5/6 1624/5/6 1631/5/6
f 1622/5/6 1623/5/6 1631/5/6
f 1621/5/6 1622/5/6 1631/5/6
f 1624/5/6 1625/5/6 1631/5/6
f 1619/5/6 1620/5/6 1631/5/6
f 1617/5/6 1618/5/6 1631/5/6
f 1631/5/6 1630/5/6 1632/5/6
f 1617/5/6 1631/5/6 1633/5/6
f 1632/5/6 1630/5/6 1634/5/6
f 1617/5/6 1633/5/6 1635/5/6
f 1633/5/6 1634/5/6 1635/5/6
f 1634/5/6 1630/5/6 1636/5/6
f 1635/5/6 1634/5/6 1636/5/6
f 1637/4/6 1638/4/6 1639/4/6
f 1639/4/6 1638/4/6 1640/4/6
f 1641/4/6 1642/4/6 1643/4/6
f 1643/4/6 1642/4/6 1644/4/6
f 1644/4/6 1642/4/6 1646/4/6
f 1645/4/6 1646/4/6 1647/4/6
f 1646/4/6 1642/4/6 1648/4/6
f 1647/4/6 1646/4/6 1648/4/6
f 1641/4/6 1643/4/6 1649/4/6
f 1648/4/6 1642/4/6 1650/4/6
f 1651/2/6 1652/2/6 1653/2/6
f 1653/2/6 1652/2/6 1654/2/6
f 1641/4/6 1649/4/6 1655/4/6
f 1649/4/6 1650/4/6 1655/4/6
f 1650/4/6 1642/4/6 1656/4/6
f 1655/4/6 1650/4/6 1656/4/6
f 1657/4/6 1658/4/6 1661/4/6
f 1661/4/6 1658/4/6 1662/4/6
f 1659/4/6 1660/4/6 1663/4/6
f 1663/4/6 1660/4/6 1664/4/6
f 1659/4/6 1663/4/6 1665/4/6
f 1665/4/6 1663/4/6 1666/4/6
f 1667/4/6 1668/4/6 1671/4/6
f 1669/4/6 1670/4/6 1673/4/6
f 1673/4/6 1670/4/6 1674/4/6
f 1667/4/6 1671/4/6 1675/4/6
f 1671/4/6 1672/4/6 1675/4/6
f 1675/4/6 1672/4/6 1676/4/6
f 1677/1/6 1678/1/6 1681/1/6
f 1681/1/6 1678/1/6 1682/1/6
f 1679/1/6 1680/1/6 1683/1/6
f 1683/1/6 1680/1/6 1684/1/6
f 1685/4/6 1686/4/6 1688/4/6
f 1688/4/6 1686/4/6 1689/4/6
f 1687/4/6 1688/4/6 1689/4/6
f 1687/4/6 1689/4/6 1691/4/6
f 1689/4/6 1690/4/6 1691/4/6
f 1691/4/6 1690/4/6 1692/4/6
f 1687/4/6 1691/4/6 1693/4/6
f 1693/4/6 1691/4/6 1694/4/6
f 1694/4/6 1691/4/6 1695/4/6
f 1695/4/6 1691/4/6 1696/4/6
f 1697/5/6 1698/5/6 1699/5/6
f 1699/5/6 1698/5/6 1700/5/6
f 1697/5/6 1699/5/6 1701/5/6
f 1701/5/6 1699/5/6 1702/5/6
f 1700/5/6 1698/5/6 1703/5/6
f 1703/5/6 1698/5/6 1704/5/6
f 1705/5/6 1706/5/6 1709/5/6
f 1709/5/6 1706/5/6 1710/5/6
f 1707/5/6 1708/5/6 1711/5/6
f 1711/5/6 1708/5/6 1712/5/6
f 1713/5/6 1714/5/6 1715/5/6
f 1715/5/6 1714/5/6 1716/5/6
f 1717/1/6 1718/1/6 1719/1/6
f 1719/1/6 1718/1/6 1720/1/6
f 1717/1/6 1719/1/6 1721/1/6
f 1721/1/6 1719/1/6 1722/1/6
f 1717/1/6 1721/1/6 1723/1/6
f 1721/2/6 1722/2/6 1724/2/6
f 1723/1/6 1721/1/6 1724/1/6
f 1724/2/6 1722/2/6 1725/2/6
f 1717/1/6 1723/1/6 1726/1/6
f 1723/2/6 1724/2/6 1727/2/6
f 1726/1/6 1723/1/6 1727/1/6
f 1724/1/6 1725/1/6 1728/1/6
f 1727/2/6 1724/2/6 1728/2/6
f 1717/1/6 1726/1/6 1729/1/6
f 1726/2/6 1727/2/6 1730/2/6
f 1729/1/6 1726/1/6 1730/1/6
f 1727/1/6 1728/1/6 1731/1/6
f 1730/2/6 1727/2/6 1731/2/6
f 1728/1/6 1725/1/6 1732/1/6
f 1731/1/6 1728/1/6 1732/1/6
f 1720/1/6 1718/1/6 1733/1/6
f 1717/1/6 1729/1/6 1734/1/6
f 1729/2/6 1730/2/6 1735/2/6
f 1734/1/6 1729/1/6 1735/1/6
f 1731/1/6 1732/1/6 1736/1/6
f 1735/2/6 1730/2/6 1736/2/6
f 1732/1/6 1733/1/6 1736/1/6
f 1730/1/6 1731/1/6 1736/1/6
f 1736/1/6 1733/1/6 1737/1/6
f 1737/1/6 1733/1/6 1738/1/6
f 1735/1/6 1736/1/6 1739/1/6
f 1736/1/6 1737/1/6 1739/1/6
f 1737/2/6 1738/2/6 1740/2/6
f 1739/1/6 1737/1/6 1740/1/6
f 1738/1/6 1733/1/6 1741/1/6
f 1740/2/6 1738/2/6 1741/2/6
f 1741/1/6 1733/1/6 1742/1/6
f 1742/1/6 1733/1/6 1743/1/6
f 1733/1/6 1718/1/6 1744/1/6
f 1743/1/6 1733/1/6 1744/1/6
f 1734/2/6 1735/2/6 1745/2/6
f 1717/1/6 1734/1/6 1745/1/6
f 1735/1/6 1739/1/6 1746/1/6
f 1745/2/6 1735/2/6 1746/2/6
f 1739/2/6 1740/2/6 1747/2/6
f 1746/1/6 1739/1/6 1747/1/6
f 1740/1/6 1741/1/6 1748/1/6
f 1747/2/6 1740/2/6 1748/2/6
f 1741/2/6 1742/2/6 1749/2/6
f 1748/1/6 1741/1/6 1749/1/6
f 1742/1/6 1743/1/6 1750/1/6
f 1749/2/6 1742/2/6 1750/2/6
f 1747/2/6 1748/2/6 1751/2/6
f 1748/2/6 1749/2/6 1751/2/6
f 1745/1/6 1746/1/6 1751/1/6
f 1746/2/6 1747/2/6 1751/2/6
f 1751/2/6 1749/2/6 1752/2/6
f 1752/2/6 1749/2/6 1753/2/6
f 1749/1/6 1750/1/6 1754/1/6
f 1753/2/6 1749/2/6 1754/2/6
f 1752/2/6 1753/2/6 1755/2/6
f 1751/1/6 1752/1/6 1755/1/6
f 1753/1/6 1754/1/6 1756/1/6
f 1755/2/6 1753/2/6 1756/2/6
f 1754/1/6 1750/1/6 1757/1/6
f 1756/1/6 1754/1/6 1757/1/6
f 1744/1/6 1718/1/6 1758/1/6
f 1758/1/6 1718/1/6 1759/1/6
f 1759/1/6 1718/1/6 1760/1/6
f 1760/1/6 1718/1/6 1761/1/6
f 1755/1/6 1756/1/6 1762/1/6
f 1756/2/6 1757/2/6 1762/2/6
f 1757/1/6 1750/1/6 1763/1/6
f 1762/2/6 1757/2/6 1763/2/6
f 1750/1/6 1743/1/6 1764/1/6
f 1763/1/6 1750/1/6 1764/1/6
f 1744/1/6 1758/1/6 1765/1/6
f 1758/2/6 1759/2/6 1766/2/6
f 1765/1/6 1758/1/6 1766/1/6
f 1759/1/6 1760/1/6 1767/1/6
f 1766/2/6 1759/2/6 1767/2/6
f 1767/1/6 1760/1/6 1768/1/6
f 1768/1/6 1760/1/6 1769/1/6
f 1760/2/6 1761/2/6 1770/2/6
f 1769/1/6 1760/1/6 1770/1/6
f 1761/1/6 1718/1/6 1771/1/6
f 1770/2/6 1761/2/6 1771/2/6
f 1771/1/6 1718/1/6 1772/1/6
f 1762/1/6 1763/1/6 1773/1/6
f 1763/2/6 1764/2/6 1773/2/6
f 1773/2/6 1764/2/6 1774/2/6
f 1765/2/6 1766/2/6 1775/2/6
f 1766/1/6 1767/1/6 1776/1/6
f 1775/2/6 1766/2/6 1776/2/6
f 1767/2/6 1768/2/6 1777/2/6
f 1776/1/6 1767/1/6 1777/1/6
f 1768/1/6 1769/1/6 1778/1/6
f 1777/2/6 1768/2/6 1778/2/6
f 1769/2/6 1770/2/6 1779/2/6
f 1778/1/6 1769/1/6 1779/1/6
f 1770/1/6 1771/1/6 1780/1/6
f 1779/2/6 1770/2/6 1780/2/6
f 1771/2/6 1772/2/6 1781/2/6
f 1780/1/6 1771/1/6 1781/1/6
f 1781/2/6 1772/2/6 1782/2/6
f 1777/1/6 1778/1/6 1783/1/6
f 1776/1/6 1777/1/6 1783/1/6
f 1775/1/6 1776/1/6 1783/1/6
f 1778/2/6 1779/2/6 1784/2/6
f 1783/1/6 1778/1/6 1784/1/6
f 1781/1/6 1782/1/6 1785/1/6
f 1784/2/6 1779/2/6 1785/2/6
f 1779/1/6 1780/1/6 1785/1/6
f 1780/1/6 1781/1/6 1785/1/6
f 1785/1/6 1782/1/6 1786/1/6
f 1775/1/6 1783/1/6 1787/1/6
f 1783/2/6 1784/2/6 1788/2/6
f 1787/1/6 1783/1/6 1788/1/6
f 1784/1/6 1785/1/6 1789/1/6
f 1788/2/6 1784/2/6 1789/2/6
f 1785/2/6 1786/2/6 1790/2/6
f 1789/1/6 1785/1/6 1790/1/6
f 1786/1/6 1782/1/6 1791/1/6
f 1790/2/6 1786/2/6 1791/2/6
f 1791/1/6 1782/1/6 1792/1/6
f 1775/1/6 1787/1/6 1793/1/6
f 1787/2/6 1788/2/6 1794/2/6
f 1793/1/6 1787/1/6 1794/1/6
f 1789/1/6 1790/1/6 1795/1/6
f 1794/2/6 1788/2/6 1795/2/6
f 1788/1/6 1789/1/6 1795/1/6
f 1790/1/6 1791/1/6 1795/1/6
f 1773/1/6 1774/1/6 1796/1/6
f 1775/1/6 1793/1/6 1797/1/6
f 1793/2/6 1794/2/6 1798/2/6
f 1796/1/6 1797/1/6 1798/1/6
f 1797/1/6 1793/1/6 1798/1/6
f 1794/1/6 1795/1/6 1799/1/6
f 1798/2/6 1794/2/6 1799/2/6
f 1795/1/6 1791/1/6 1800/1/6
f 1799/1/6 1795/1/6 1800/1/6
f 1800/1/6 1791/1/6 1801/1/6
f 1791/2/6 1792/2/6 1802/2/6
f 1801/1/6 1791/1/6 1802/1/6
f 1792/1/6 1782/1/6 1803/1/6
f 1802/2/6 1792/2/6 1803/2/6
f 1798/1/6 1799/1/6 1804/1/6
f 1799/2/6 1800/2/6 1804/2/6
f 1800/1/6 1801/1/6 1805/1/6
f 1804/2/6 1800/2/6 1805/2/6
f 1801/2/6 1802/2/6 1806/2/6
f 1805/1/6 1801/1/6 1806/1/6
f 1802/1/6 1803/1/6 1807/1/6
f 1806/2/6 1802/2/6 1807/2/6
f 1804/1/6 1805/1/6 1808/1/6
f 1805/2/6 1806/2/6 1808/2/6
f 1806/1/6 1807/1/6 1809/1/6
f 1808/2/6 1806/2/6 1809/2/6
f 1755/1/6 1762/1/6 1810/1/6
f 1717/1/6 1745/1/6 1810/1/6
f 1808/1/6 1809/1/6 1810/1/6
f 1804/1/6 1808/1/6 1810/1/6
f 1796/1/6 1798/1/6 1810/1/6
f 1798/1/6 1804/1/6 1810/1/6
f 1773/1/6 1796/1/6 1810/1/6
f 1745/1/6 1751/1/6 1810/1/6
f 1751/1/6 1755/1/6 1810/1/6
f 1762/1/6 1773/1/6 1810/1/6
f 1809/1/6 1807/1/6 1811/1/6
f 1810/1/6 1809/1/6 1811/1/6
f 1803/1/6 1782/1/6 1811/1/6
f 1807/1/6 1803/1/6 1811/1/6
f 1812/5/6 1813/5/6 1814/5/6
f 1814/5/6 1813/5/6 1815/5/6
f 1816/5/6 1817/5/6 1820/5/6
f 1820/5/6 1817/5/6 1821/5/6
f 1818/5/6 1819/5/6 1822/5/6
f 1822/5/6 1819/5/6 1823/5/6
f 1824/5/6 1825/5/6 1828/5/6
f 1828/5/6 1825/5/6 1829/5/6
f 1826/5/6 1827/5/6 1830/5/6
f 1830/5/6 1827/5/6 1831/5/6
f 1832/5/6 1833/5/6 1835/5/6
f 1835/5/6 1833/5/6 1836/5/6
f 1834/5/6 1835/5/6 1838/5/6
f 1836/5/6 1837/5/6 1838/5/6
f 1835/5/6 1836/5/6 1838/5/6
f 1838/5/6 1837/5/6 1839/5/6
f 1834/5/6 1838/5/6 1840/5/6
f 1839/5/6 1837/5/6 1841/5/6
f 1834/5/6 1840/5/6 1842/5/6
f 1840/5/6 1841/5/6 1842/5/6
f 1842/5/6 1841/5/6 1843/5/6
f 1841/5/6 1837/5/6 1844/5/6
f 1843/5/6 1841/5/6 1844/5/6
f 1844/5/6 1837/5/6 1845/5/6
f 1843/5/6 1844/5/6 1846/5/6
f 1846/5/6 1844/5/6 1847/5/6
f 1848/1/6 1849/1/6 1852/1/6
f 1852/1/6 1849/1/6 1853/1/6
f 1850/1/6 1851/1/6 1854/1/6
f 1854/1/6 1851/1/6 1855/1/6
f 1856/5/6 1857/5/6 1858/5/6
f 1858/5/6 1857/5/6 1859/5/6
f 1860/1/6 1861/1/6 1862/1/6
f 1862/1/6 1861/1/6 1863/1/6
f 1860/1/6 1862/1/6 1864/1/6
f 1863/1/6 1861/1/6 1865/1/6
f 1860/1/6 1864/1/6 1866/1/6
f 1864/1/6 1865/1/6 1866/1/6
f 1865/1/6 1861/1/6 1867/1/6
f 1866/1/6 1865/1/6 1867/1/6
f 1868/4/6 1869/4/6 1870/4/6
f 1870/4/6 1869/4/6 1871/4/6
f 1871/4/6 1869/4/6 1872/4/6
f 1872/4/6 1869/4/6 1873/4/6
f 1873/4/6 1869/4/6 1874/4/6
f 1870/5/6 1871/5/6 1875/5/6
f 1875/5/6 1871/5/6 1876/5/6
f 1873/5/6 1874/5/6 1877/5/6
f 1877/5/6 1874/5/6 1878/5/6
f 1875/4/6 1876/4/6 1879/4/6
f 1879/4/6 1876/4/6 1880/4/6
f 1877/4/6 1878/4/6 1881/4/6
f 1881/4/6 1878/4/6 1882/4/6
f 1883/2/6 1884/2/6 1885/2/6
f 1885/2/6 1884/2/6 1886/2/6
f 1886/2/6 1884/2/6 1887/2/6
f 1887/2/6 1884/2/6 1888/2/6
f 1888/2/6 1884/2/6 1889/2/6
f 1889/2/6 1884/2/6 1890/2/6
f 1891/5/6 1892/5/6 1893/5/6
f 1893/5/6 1892/5/6 1894/5/6
f 1894/5/6 1892/5/6 1895/5/6
f 1895/5/6 1892/5/6 1896/5/6
f 1897/2/6 1898/2/6 1901/2/6
f 1901/2/6 1898/2/6 1902/2/6
f 1899/2/6 1900/2/6 1903/2/6
f 1903/2/6 1900/2/6 1904/2/6
f 1905/5/6 1906/5/6 1909/5/6
f 1909/5/6 1906/5/6 1910/5/6
f 1907/5/6 1908/5/6 1913/5/6
f 1913/5/6 1908/5/6 1914/5/6
f 1910/5/6 1911/5/6 1915/5/6
f 1915/5/6 1911/5/6 1916/5/6
f 1912/5/6 1913/5/6 1917/5/6
f 1917/5/6 1913/5/6 1918/5/6
f 1919/5/6 1920/5/6 1923/5/6
f 1923/5/6 1920/5/6 1924/5/6
f 1921/5/6 1922/5/6 1927/5/6
f 1927/5/6 1922/5/6 1928/5/6
f 1924/5/6 1925/5/6 1929/5/6
f 1929/5/6 1925/5/6 1930/5/6
f 1926/5/6 1927/5/6 1931/5/6
f 1931/5/6 1927/5/6 1932/5/6
f 1930/5/6 1931/5/6 1933/5/6
f 1933/5/6 1931/5/6 1934/5/6
f 1935/5/6 1936/5/6 1937/5/6
f 1937/5/6 1936/5/6 1938/5/6
f 1938/5/6 1936/5/6 1939/5/6
f 1939/5/6 1936/5/6 1940/5/6
f 1938/5/6 1939/5/6 1941/5/6
f 1941/5/6 1939/5/6 1942/5/6
f 1943/2/6 1944/2/6 1947/2/6
f 1947/2/6 1944/2/6 1948/2/6
f 1945/2/6 1946/2/6 1949/2/6
f 1949/2/6 1946/2/6 1950/2/6
f 1951/5/6 1952/5/6 1955/5/6
f 1955/5/6 1952/5/6 1956/5/6
f 1953/5/6 1954/5/6 1957/5/6
f 1957/5/6 1954/5/6 1958/5/6
f 1955/4/6 1956/4/6 1959/4/6
f 1959/4/6 1956/4/6 1960/4/6
f 1957/4/6 1958/4/6 1961/4/6
f 1961/4/6 1958/4/6 1962/4/6
f 1963/1/6 1964/1/6 1965/1/6
f 1965/1/6 1964/1/6 1966/1/6
f 1965/4/6 1966/4/6 1967/4/6
f 1967/4/6 1966/4/6 1968/4/6
f 1969/4/6 1970/4/6 1971/4/6
f 1971/4/6 1970/4/6 1972/4/6
f 1973/4/6 1974/4/6 1975/4/6
f 1975/4/6 1974/4/6 1976/4/6
f 1977/4/6 1978/4/6 1979/4/6
f 1979/4/6 1978/4/6 1980/4/6
